<svg width="1440" height="810" viewBox="0 0 1440 810" fill="none" xmlns="http://www.w3.org/2000/svg">
<g clip-path="url(#clip0_78_170)">
<rect width="1440" height="810" fill="black"/>
<path d="M1724 138C1645.25 191.759 1562.91 241.001 1474.68 277.169C1446.08 288.895 1416.68 299.282 1386.12 303.929C1323.79 313.404 1260.59 298.606 1197.58 296.621C1117.56 294.096 1037.08 313.074 966.25 350.301C912.954 378.314 852.992 418.945 792.702 429.142C737.933 438.405 679.015 388.006 630.513 368.341C580.835 348.201 525.272 343.912 472.807 354.272C445.322 359.7 418.588 369.146 393.939 382.486C370.367 395.245 349.833 418.991 321.889 400.328C312.652 394.159 306.267 384.653 298.329 376.882C270.741 349.879 222.498 347.769 192.659 372.262" stroke="white" stroke-opacity="0.8" stroke-miterlimit="10"/>
<path d="M1720.53 139.686C1643.56 194.167 1562.08 243.925 1474.33 279.959C1445.12 291.978 1415.1 302.05 1384 307.236C1346.47 313.443 1308.55 311.142 1270.52 307.87C1244.55 305.637 1218.53 302.95 1192.53 302.198C1141.17 300.717 1089.63 307.126 1040.5 320.621C1011.77 328.514 983.865 338.836 957.272 351.485C938.59 360.327 919.164 370.569 899.241 380.542C871.221 394.528 842.206 407.967 812.724 416.573C802.14 419.675 791.499 422.154 780.846 423.782C736.809 430.486 690.16 402.094 648.199 381.207C636.951 375.58 626.04 370.493 615.597 366.765C572.672 351.303 525.86 347.423 480.551 354.158C472.749 355.316 464.99 356.789 457.295 358.573C429.855 364.932 403.144 375.205 378.279 389.008C363.553 397.185 349.894 409.356 334.868 413.202C325.616 415.571 315.89 414.739 305.071 407.974C295.618 402.063 288.872 392.93 280.638 385.424C252.059 359.332 203.428 357.032 172.731 381.21" stroke="white" stroke-opacity="0.8" stroke-miterlimit="10"/>
<path d="M1717.05 141.367C1641.88 196.573 1561.24 246.844 1473.98 282.745C1444.15 295.061 1413.51 304.817 1381.88 310.534C1343.87 317.315 1305.39 315.659 1266.75 312.842C1240.36 310.922 1213.9 308.458 1187.47 307.767C1135.25 306.393 1082.86 312.243 1032.91 324.524C1003.7 331.702 975.342 341.098 948.286 352.662C929.236 360.721 909.488 370.091 889.272 379.171C860.811 391.889 831.398 404.022 801.388 411.839C790.633 414.663 779.817 416.929 768.975 418.418C724.072 424.526 676.516 397.504 633.792 378.298C622.365 373.113 611.273 368.511 600.67 365.193C557.16 351.58 510.238 349.336 464.99 357.658C457.204 359.085 449.459 360.832 441.775 362.874C414.377 370.163 387.689 381.263 362.611 395.534C347.752 403.992 333.862 416.223 318.555 420.259C309.121 422.745 299.232 422.039 288.245 415.624C278.569 409.971 271.469 401.213 262.939 393.969C233.374 368.789 184.348 366.298 152.801 390.158" stroke="white" stroke-opacity="0.8" stroke-miterlimit="10"/>
<path d="M1713.58 143.049C1640.2 198.976 1560.41 249.767 1473.63 285.532C1443.19 298.14 1411.93 307.581 1379.76 313.837C1341.27 321.195 1302.22 320.181 1262.98 317.82C1236.18 316.214 1209.29 313.974 1182.42 313.336C1129.35 312.072 1076.09 317.36 1025.32 328.423C995.641 334.892 966.858 343.433 939.308 353.835C919.909 361.162 899.815 369.605 879.315 377.798C850.41 389.247 820.605 400.074 790.068 407.097C779.146 409.645 768.148 411.699 757.123 413.05C711.351 418.562 662.846 393.025 619.401 375.383C607.784 370.664 596.528 366.504 585.758 363.611C541.694 351.774 494.628 351.239 449.448 361.151C441.673 362.852 433.944 364.864 426.275 367.168C398.923 375.387 372.258 387.315 346.967 402.052C331.975 410.791 317.857 423.084 302.265 427.309C292.649 429.917 282.597 429.34 271.439 423.262C261.539 417.871 254.086 409.482 245.26 402.5C214.704 378.23 165.291 375.546 132.886 399.095" stroke="white" stroke-opacity="0.8" stroke-miterlimit="10"/>
<path d="M1710.11 144.735C1638.52 201.383 1559.57 252.69 1473.28 288.326C1442.22 301.23 1410.36 310.417 1377.64 317.144C1338.69 325.15 1299.06 324.706 1259.22 322.804C1232 321.51 1204.67 319.498 1177.36 318.917C1123.44 317.763 1069.32 322.493 1017.74 332.337C987.582 338.092 958.343 345.73 930.33 355.023C910.563 361.583 890.146 369.134 869.354 376.442C840.008 386.624 809.805 396.145 778.74 402.375C767.647 404.645 756.471 406.486 745.264 407.697C698.626 412.613 649.206 388.48 605.002 372.483C593.203 368.212 581.78 364.51 570.843 362.043C526.232 351.983 479.018 353.156 433.899 364.655C426.135 366.625 418.421 368.907 410.768 371.473C383.461 380.622 356.815 393.378 331.311 408.578C316.187 417.598 301.841 429.947 285.964 434.366C276.166 437.096 265.946 436.648 254.626 430.912C244.497 425.783 236.696 417.765 227.573 411.046C196.026 387.687 146.222 384.813 112.967 408.043" stroke="white" stroke-opacity="0.8" stroke-miterlimit="10"/>
<path d="M1706.64 146.417C1636.84 203.79 1558.74 255.613 1472.94 291.113C1441.26 304.309 1408.79 313.196 1375.53 320.443C1336.09 329.038 1295.89 329.224 1255.45 327.777C1227.82 326.798 1200.06 325.01 1172.31 324.482C1117.53 323.438 1062.55 327.606 1010.15 336.235C979.519 341.281 949.828 348.008 921.352 356.196C901.22 361.986 880.492 368.701 859.392 375.068C829.625 384.054 798.997 392.121 767.415 397.633C756.148 399.6 744.801 401.255 733.404 402.325C685.897 406.645 635.57 383.913 590.602 369.567C578.625 365.744 567.027 362.502 555.923 360.46C510.77 352.165 463.404 355.058 418.345 368.147C410.597 370.391 402.898 372.938 395.252 375.766C367.991 385.849 341.364 399.433 315.648 415.096C300.39 424.397 285.812 436.807 269.655 441.416C259.675 444.267 249.288 443.948 237.804 438.553C227.448 433.687 219.297 426.041 209.879 419.583C177.344 397.136 127.15 394.072 93.0361 416.987" stroke="white" stroke-opacity="0.8" stroke-miterlimit="10"/>
<path d="M1703.17 148.102C1635.16 206.197 1557.9 258.537 1472.59 293.903C1440.3 307.395 1407.21 315.975 1373.41 323.75C1333.49 332.933 1292.73 333.745 1251.69 332.758C1223.64 332.09 1195.44 330.53 1167.25 330.059C1111.61 329.125 1055.78 332.735 1002.57 340.142C971.458 344.474 941.308 350.293 912.373 357.377C891.873 362.396 870.822 368.231 849.434 373.701C819.223 381.431 788.199 388.169 756.09 392.899C744.656 394.585 733.126 396.035 721.548 396.961C673.175 400.686 621.94 379.354 576.206 366.655C564.05 363.281 552.286 360.494 541.007 358.884C495.315 352.355 447.792 356.967 402.795 371.644C395.058 374.157 387.374 376.974 379.744 380.06C352.528 391.073 325.923 405.484 299.991 421.615C284.601 431.196 269.795 443.667 253.353 448.466C243.194 451.438 232.629 451.252 220.986 446.196C210.398 441.594 201.902 434.313 192.191 428.118C158.666 406.581 108.08 403.324 73.1162 425.927" stroke="white" stroke-opacity="0.8" stroke-miterlimit="10"/>
<path d="M1699.69 149.784C1633.47 208.6 1557.07 261.456 1472.23 296.689C1439.33 310.474 1405.62 318.746 1371.29 327.048C1330.89 336.816 1289.56 338.263 1247.92 337.731C1219.45 337.378 1190.82 336.042 1162.19 335.624C1105.7 334.8 1049.01 337.849 994.981 344.041C963.396 347.662 932.786 352.571 903.388 358.55C882.516 362.798 861.142 367.752 839.466 372.331C808.81 378.799 777.396 384.213 744.759 388.161C733.158 389.566 721.446 390.807 709.681 391.593C660.439 394.721 608.305 374.787 561.804 363.74C549.47 360.809 537.534 358.482 526.084 357.301C479.857 352.529 432.171 358.869 387.238 375.136C379.513 377.919 371.844 381.009 364.229 384.353C337.059 396.297 310.473 411.535 284.328 428.129C268.805 437.991 253.768 450.523 237.045 455.511C226.704 458.602 215.964 458.556 204.165 453.83C193.342 449.494 184.504 442.581 174.497 436.648C139.985 416.018 89.0084 412.575 53.1865 434.86" stroke="white" stroke-opacity="0.8" stroke-miterlimit="10"/>
<path d="M1696.22 151.465C1631.8 211.007 1556.24 264.379 1471.89 299.479C1438.37 313.56 1404.05 321.521 1369.17 330.355C1328.3 340.703 1286.4 342.788 1244.15 342.715C1215.27 342.674 1186.2 341.565 1157.14 341.205C1099.79 340.491 1042.24 342.977 987.395 347.954C955.332 350.862 924.263 354.856 894.409 359.738C873.165 363.212 851.473 367.289 829.507 370.971C798.408 376.184 766.602 380.272 733.434 383.435C721.662 384.558 709.776 385.591 697.825 386.236C647.717 388.768 594.683 370.227 547.408 360.835C534.895 358.349 522.792 356.481 511.172 355.729C464.409 352.707 416.564 360.782 371.696 378.64C363.985 381.696 356.332 385.052 348.724 388.658C321.6 401.532 295.033 417.598 268.675 434.658C253.02 444.802 237.755 457.39 220.747 462.572C210.224 465.784 199.306 465.879 187.355 461.483C176.296 457.417 167.117 450.865 156.814 445.197C121.311 425.479 69.9428 421.846 33.2705 443.815" stroke="white" stroke-opacity="0.8" stroke-miterlimit="10"/>
<path d="M1692.75 153.151C1630.11 213.413 1555.4 267.302 1471.54 302.27C1437.4 316.642 1402.46 324.296 1367.05 333.657C1325.7 344.587 1283.22 347.309 1240.38 347.692C1211.08 347.966 1181.58 347.077 1152.08 346.774C1093.87 346.17 1035.46 348.099 979.807 351.853C947.269 354.051 915.741 357.13 885.427 360.915C863.811 363.614 841.797 366.814 819.543 369.601C787.999 373.553 755.803 376.32 722.103 378.697C710.164 379.54 698.095 380.363 685.958 380.868C634.982 382.804 581.047 365.653 533.001 357.923C520.314 355.881 508.037 354.469 496.246 354.15C448.955 352.874 400.943 362.688 356.135 382.133C348.437 385.458 340.798 389.084 333.206 392.952C306.127 406.755 279.583 423.653 253.009 441.176C237.224 451.601 221.724 464.25 204.435 469.622C193.73 472.955 182.633 473.191 170.527 469.125C159.229 465.329 149.711 459.141 139.112 453.731C102.622 434.924 50.8595 431.097 13.333 452.751" stroke="white" stroke-opacity="0.8" stroke-miterlimit="10"/>
<path d="M1689.28 154.833C1628.44 215.817 1554.57 270.225 1471.19 305.057C1436.44 319.725 1400.89 327.067 1364.93 336.961C1323.1 348.471 1280.06 351.831 1236.61 352.67C1206.9 353.254 1176.96 352.594 1147.02 352.347C1087.96 351.854 1028.69 353.22 972.218 355.76C939.201 357.244 907.214 359.404 876.445 362.096C854.456 364.017 832.119 366.344 809.576 368.238C777.585 370.926 745.001 372.376 710.774 373.971C698.667 374.533 686.417 375.148 674.098 375.512C622.255 376.852 567.425 361.086 518.601 355.02C505.735 353.421 493.291 352.465 481.325 352.579C433.507 353.042 385.328 364.602 340.581 385.637C332.894 389.236 325.271 393.127 317.693 397.257C290.66 411.991 264.135 429.716 237.352 447.703C221.434 458.408 205.706 471.118 188.133 476.68C177.245 480.134 165.97 480.514 153.712 476.775C142.175 473.252 132.308 467.443 121.424 462.277C83.9054 444.461 31.7936 440.364 -6.59082 461.703" stroke="white" stroke-opacity="0.8" stroke-miterlimit="10"/>
<path d="M1685.81 156.514C1626.75 218.223 1553.73 273.144 1470.84 307.843C1435.48 322.804 1399.31 329.835 1362.81 340.259C1320.5 352.347 1276.9 356.348 1232.85 357.643C1202.71 358.542 1172.34 358.106 1141.97 357.912C1082.05 357.529 1021.92 358.333 964.633 359.658C931.142 360.433 898.687 361.67 867.466 363.269C845.106 364.411 822.446 365.862 799.619 366.864C767.183 368.287 734.209 368.424 699.45 369.229C687.172 369.514 674.747 369.916 662.238 370.14C609.527 370.884 553.801 356.5 504.202 352.1C491.162 350.942 478.547 350.441 466.406 350.995C418.06 353.19 369.71 366.503 325.028 389.125C317.356 392.994 309.748 397.158 302.182 401.547C275.194 417.21 248.688 435.763 221.692 454.217C205.642 465.203 189.682 477.97 171.828 483.725C160.762 487.302 149.301 487.829 136.894 484.409C125.114 481.163 114.914 475.711 103.734 470.803C65.2278 453.898 12.7211 449.612 -26.5137 470.636" stroke="white" stroke-opacity="0.8" stroke-miterlimit="10"/>
<path d="M1682.33 158.2C1625.07 220.63 1552.9 276.072 1470.49 310.637C1434.51 325.894 1397.72 332.61 1360.69 343.57C1317.9 356.234 1273.73 360.873 1229.08 362.627C1198.53 363.838 1167.72 363.63 1136.91 363.493C1076.13 363.22 1015.14 363.466 957.045 363.573C923.076 363.633 890.162 363.952 858.482 364.457C835.749 364.822 812.766 365.395 789.651 365.505C756.767 365.664 723.405 364.487 688.119 364.503C675.674 364.506 663.067 364.7 650.376 364.787C596.799 364.935 540.177 351.929 489.804 349.204C476.589 348.486 463.803 348.441 451.491 349.431C402.618 353.353 354.101 368.424 309.479 392.637C301.818 396.779 294.226 401.209 286.671 405.86C259.729 422.457 233.246 441.833 206.034 460.754C189.85 472.022 173.663 484.849 155.524 490.794C144.275 494.488 132.628 495.168 120.074 492.07C108.055 489.105 97.5163 484.007 86.0401 479.36C46.5471 463.37 -6.3506 458.886 -46.4434 479.595" stroke="white" stroke-opacity="0.8" stroke-miterlimit="10"/>
<path d="M1678.86 159.882C1623.39 223.033 1552 278.827 1470.14 313.423C1433.52 328.901 1396.14 335.373 1358.58 346.869C1315.31 360.106 1270.57 365.391 1225.32 367.604C1194.35 369.13 1163.11 369.145 1131.86 369.062C1070.23 368.898 1008.38 368.583 949.463 367.471C915.019 366.822 881.642 366.211 849.507 365.63C826.402 365.212 803.097 364.909 779.696 364.134C746.365 363.029 712.619 360.539 676.797 359.765C664.186 359.491 651.396 359.472 638.519 359.419C584.073 358.971 526.559 347.339 475.407 346.288C462.018 346.011 449.061 346.421 436.575 347.848C387.174 353.493 338.49 370.326 293.933 396.126C286.283 400.537 278.706 405.237 271.166 410.149C244.269 427.677 217.805 447.881 190.381 467.265C174.064 478.813 157.645 491.701 139.226 497.836C127.795 501.651 115.966 502.483 103.263 499.704C91.0013 497.02 80.1287 492.275 68.3601 487.89C27.8802 472.815 -25.4123 468.138 -66.3555 488.531" stroke="white" stroke-opacity="0.8" stroke-miterlimit="10"/>
<path d="M1675.39 161.564C1621.71 225.44 1551.16 281.747 1469.79 316.21C1432.55 331.98 1394.56 338.137 1356.45 350.168C1312.7 363.979 1267.4 369.909 1221.55 372.577C1190.16 374.415 1158.49 374.658 1126.8 374.631C1064.31 374.574 1001.6 373.705 941.87 371.374C906.948 370.011 873.108 368.474 840.52 366.807C817.04 365.604 793.416 364.431 769.727 362.764C735.947 360.391 701.815 356.595 665.462 355.027C652.679 354.477 639.715 354.249 626.652 354.051C571.34 353.008 512.93 342.75 461 343.372C447.432 343.536 434.308 344.401 421.648 346.265C371.715 353.626 322.868 372.228 278.371 399.618C270.737 404.299 263.175 409.269 255.647 414.443C228.796 432.901 202.35 453.936 174.713 473.783C158.264 485.609 141.617 498.558 122.913 504.886C111.3 508.823 99.2846 509.81 86.4379 507.346C73.9291 504.947 62.73 500.547 50.6616 496.424C9.19456 482.26 -44.4889 477.393 -86.29 497.468" stroke="white" stroke-opacity="0.8" stroke-miterlimit="10"/>
<path d="M1671.92 163.249C1620.03 227.847 1550.33 284.674 1469.44 319C1431.59 335.062 1392.98 340.905 1354.34 353.474C1310.1 367.858 1264.23 374.434 1217.79 377.558C1185.98 379.71 1153.88 380.177 1121.75 380.204C1058.41 380.257 994.837 378.826 934.289 375.28C898.893 373.207 864.589 370.74 831.546 367.987C807.694 366.002 783.747 363.952 759.769 361.397C725.546 357.753 691.022 352.654 654.141 350.293C641.192 349.465 628.045 349.025 614.8 348.687C558.619 347.047 499.317 338.156 446.609 340.46C432.866 341.06 419.571 342.381 406.736 344.69C356.276 353.763 307.258 374.138 262.826 403.118C255.203 408.073 247.656 413.312 240.143 418.744C213.337 438.132 186.915 459.995 159.062 480.309C142.479 492.415 125.605 505.425 106.616 511.943C94.8205 516.002 82.6192 517.148 69.6244 514.995C56.8726 512.881 45.3394 508.83 32.9749 504.969C-9.47918 491.717 -63.5575 486.656 -106.209 506.42" stroke="white" stroke-opacity="0.8" stroke-miterlimit="10"/>
<path d="M1668.45 164.931C1618.35 230.25 1549.56 287.756 1469.09 321.787C1430.66 338.221 1391.39 343.668 1352.22 356.773C1307.5 371.731 1261.07 378.951 1214.02 382.531C1181.8 384.995 1149.25 385.686 1116.69 385.773C1052.49 385.936 988.06 383.943 926.701 379.179C890.825 376.393 856.063 372.995 822.56 369.161C798.336 366.386 774.066 363.466 749.804 360.027C715.132 355.114 680.222 348.71 642.809 345.555C629.693 344.45 616.364 343.798 602.933 343.319C545.886 341.083 485.688 333.559 432.202 337.549C418.284 338.589 404.815 340.362 391.813 343.11C340.821 353.892 291.64 376.043 247.269 406.611C239.661 411.835 232.125 417.343 224.624 423.038C197.863 443.356 171.46 466.046 143.394 486.823C126.679 499.211 109.573 512.281 90.3066 518.989C78.3331 523.165 65.9419 524.475 52.8029 522.63C39.8082 520.804 27.9485 517.072 15.2802 513.5C-28.1381 501.071 -82.6302 495.908 -126.14 515.352" stroke="white" stroke-opacity="0.8" stroke-miterlimit="10"/>
<path d="M1664.97 166.613C1616.66 232.657 1548.73 290.68 1468.74 324.577C1429.7 341.304 1389.82 346.436 1350.1 360.08C1304.9 375.607 1257.9 383.473 1210.25 387.516C1177.62 390.295 1144.64 391.21 1111.63 391.35C1046.58 391.624 981.288 389.073 919.112 383.09C882.762 379.593 847.536 375.262 813.578 370.345C788.982 366.785 764.393 362.988 739.839 358.664C704.723 352.48 669.421 344.774 631.481 340.825C618.198 339.444 604.691 338.578 591.073 337.959C533.157 335.127 472.063 328.962 417.806 334.641C403.711 336.118 390.074 338.343 376.897 341.535C325.37 354.021 276.029 377.953 231.719 410.112C224.123 415.609 216.606 421.383 209.116 427.336C182.401 448.583 156.021 472.102 127.738 493.346C110.89 506.014 93.5563 519.142 74.0054 526.043C61.8496 530.341 49.2725 531.814 35.9892 530.276C22.7515 528.742 10.5578 525.349 -2.40657 522.038C-46.8119 510.52 -101.699 505.167 -146.062 524.297" stroke="white" stroke-opacity="0.8" stroke-miterlimit="10"/>
<path d="M1661.5 168.299C1614.99 235.064 1547.9 293.603 1468.39 327.367C1428.73 344.39 1388.24 349.2 1347.98 363.383C1302.3 379.479 1254.74 387.994 1206.49 392.493C1173.44 395.583 1140.02 396.726 1106.58 396.923C1040.67 397.307 974.522 394.194 911.534 386.996C874.706 382.786 839.025 377.52 804.607 371.526C779.639 367.176 754.728 362.51 729.888 357.298C694.325 349.838 658.636 340.837 620.164 336.095C606.71 334.436 593.024 333.358 579.221 332.599C520.435 329.171 458.445 324.365 403.414 331.733C389.144 333.643 375.333 336.323 361.985 339.96C309.922 354.143 260.422 379.863 216.176 413.608C208.591 419.375 201.09 425.418 193.615 431.633C166.946 453.811 140.584 478.16 112.093 499.864C95.1124 512.813 77.5469 526.001 57.715 533.093C45.377 537.512 32.6176 539.152 19.1825 537.918C5.70183 536.68 -6.82599 533.624 -20.0865 530.576C-65.4827 519.965 -120.757 514.423 -165.975 533.241" stroke="white" stroke-opacity="0.8" stroke-miterlimit="10"/>
<path d="M1658.03 169.98C1613.3 237.467 1547.06 296.522 1468.04 330.154C1427.77 347.469 1386.64 351.96 1345.86 366.686C1299.69 383.351 1251.56 392.516 1202.71 397.47C1169.25 400.875 1135.4 402.242 1101.52 402.492C1034.75 402.986 967.742 399.315 903.937 390.895C866.635 385.975 830.49 379.772 795.617 372.699C770.281 367.559 745.043 362.02 719.915 355.927C683.907 347.195 647.827 336.896 608.828 331.357C595.207 329.421 581.339 328.13 567.353 327.231C507.702 323.207 444.813 319.76 389.007 328.821C374.558 331.167 360.58 334.299 347.058 338.38C294.456 354.26 244.797 381.768 200.615 417.104C193.045 423.144 185.555 429.458 178.096 435.93C151.472 459.042 125.13 484.215 96.4257 506.386C79.312 519.616 61.5187 532.865 41.4021 540.15C28.8818 544.69 15.9365 546.498 2.35709 545.567C-11.3703 544.626 -24.2284 541.904 -37.785 539.121C-84.1683 529.422 -139.837 523.689 -185.909 542.189" stroke="white" stroke-opacity="0.8" stroke-miterlimit="10"/>
<path d="M1654.56 171.662C1611.62 239.874 1546.23 299.445 1467.7 332.94C1426.81 350.551 1385.07 354.719 1343.74 369.984C1297.09 387.22 1248.4 397.033 1198.95 402.443C1165.07 406.159 1130.79 407.754 1096.47 408.061C1028.84 408.665 960.977 404.432 896.36 394.797C858.579 389.163 821.979 382.026 786.647 373.876C760.939 367.946 735.382 361.534 709.962 354.556C673.51 344.549 637.039 332.955 597.508 326.619C583.716 324.41 569.673 322.903 555.498 321.862C494.977 317.242 431.188 315.151 374.611 325.905C359.988 328.684 345.836 332.272 332.146 336.801C279.002 354.378 229.19 383.674 185.07 420.597C177.511 426.906 170.04 433.489 162.588 440.224C136.006 464.266 109.69 490.266 80.77 512.904C63.5272 526.415 45.4986 539.721 25.101 547.2C12.3986 551.861 -0.73281 553.839 -14.4564 553.205C-28.4268 552.564 -41.619 550.176 -55.4717 547.651C-102.846 538.863 -158.902 532.941 -205.828 551.125" stroke="white" stroke-opacity="0.8" stroke-miterlimit="10"/>
<path d="M1651.08 173.347C1609.94 242.281 1545.39 302.369 1467.34 335.734C1425.84 353.638 1383.48 357.483 1341.62 373.295C1294.49 391.096 1245.23 401.562 1195.18 407.431C1160.88 411.463 1126.16 413.281 1091.41 413.642C1022.93 414.356 954.201 409.561 888.768 398.711C850.512 392.367 813.453 384.289 777.657 375.064C751.581 368.345 725.701 361.059 699.993 353.197C663.1 341.915 626.23 329.026 586.172 321.893C572.213 319.406 557.988 317.687 543.63 316.506C482.244 311.29 417.551 310.55 360.204 323.001C345.403 326.217 331.075 330.256 317.219 335.229C263.531 354.496 213.568 385.587 169.508 424.101C161.961 430.684 154.505 437.532 147.068 444.529C120.532 469.501 94.2353 496.329 65.1025 519.43C47.7268 533.222 29.4704 546.589 8.78813 554.257C-4.09272 559.037 -17.4102 561.189 -31.2857 560.855C-45.4952 560.513 -59.0252 558.456 -73.1703 556.197C-121.535 548.32 -177.982 542.208 -225.763 560.073" stroke="white" stroke-opacity="0.8" stroke-miterlimit="10"/>
<path d="M1647.61 175.029C1608.26 244.683 1544.56 305.291 1466.99 338.52C1424.88 356.72 1381.9 360.243 1339.5 376.594C1291.89 394.96 1242.07 406.079 1191.42 412.404C1156.7 416.747 1121.55 418.789 1086.35 419.211C1017.01 420.035 947.432 414.682 881.183 402.61C842.449 395.552 804.934 386.536 768.679 376.237C742.234 368.724 716.028 360.569 690.031 351.826C652.695 339.268 615.434 325.089 574.848 317.155C560.718 314.395 546.315 312.463 531.771 311.141C469.515 305.329 403.923 305.937 345.809 320.089C330.829 323.738 316.331 328.229 302.303 333.65C248.069 354.605 197.958 387.493 153.963 427.597C146.431 434.449 138.987 441.567 131.565 448.826C105.074 474.728 78.7961 502.384 49.4507 525.952C31.9422 540.024 13.4541 553.452 -7.50904 561.31C-20.5721 566.211 -34.0718 568.538 -48.0953 568.501C-62.5478 568.463 -76.4119 566.735 -90.8531 564.735C-140.205 557.768 -197.047 551.463 -245.678 569.017" stroke="white" stroke-opacity="0.8" stroke-miterlimit="10"/>
<path d="M1644.14 176.711C1606.58 247.091 1543.73 308.211 1466.64 341.307C1423.91 359.799 1380.28 362.916 1337.38 379.893C1289.25 398.734 1238.9 410.594 1187.65 417.378C1152.52 422.036 1116.93 424.302 1081.3 424.777C1011.11 425.71 940.663 419.796 873.598 406.509C834.39 398.742 796.419 388.784 759.701 377.41C732.888 369.104 706.359 360.08 680.074 350.453C642.297 336.619 604.622 321.229 563.523 312.414C549.219 309.403 534.645 307.232 519.915 305.77C456.794 299.362 390.294 301.321 331.414 317.174C316.255 321.255 301.586 326.202 287.388 332.067C232.607 354.712 182.344 389.395 138.413 431.086C130.893 438.208 123.467 445.599 116.053 453.116C89.608 479.948 63.3528 508.436 33.791 532.466C16.1496 546.82 -2.56622 560.305 -23.8141 568.357C-37.0594 573.379 -50.7413 575.881 -64.9129 576.139C-79.6084 576.405 -93.8066 575.008 -108.544 573.269C-158.887 567.214 -216.116 560.718 -265.604 577.957" stroke="white" stroke-opacity="0.8" stroke-miterlimit="10"/>
<path d="M1640.67 178.397C1604.9 249.498 1542.89 311.134 1466.3 344.098C1422.95 362.886 1378.7 365.687 1335.27 383.2C1286.65 402.614 1235.74 415.119 1183.89 422.359C1148.33 427.328 1112.31 429.822 1076.24 430.354C1005.19 431.398 933.891 424.925 866.013 410.419C826.326 401.938 787.904 391.043 750.723 378.595C723.541 369.495 696.709 359.553 670.112 349.09C631.921 333.912 593.822 317.288 552.199 307.684C537.728 304.396 522.971 302.012 508.056 300.41C444.065 293.406 376.662 296.712 317.014 314.266C301.677 318.78 286.834 324.179 272.472 330.496C217.141 354.826 166.734 391.309 122.864 434.59C115.355 441.985 107.944 449.643 100.545 457.421C74.1457 485.184 47.9095 514.499 18.1351 538.992C0.360789 553.627 -18.5828 567.172 -40.1154 575.414C-53.5429 580.558 -67.407 583.235 -81.7305 583.785C-96.6652 584.358 -111.201 583.284 -126.235 581.811C-177.564 576.667 -235.188 569.978 -285.531 586.902" stroke="white" stroke-opacity="0.8" stroke-miterlimit="10"/>
<path d="M1637.2 180.078C1603.22 251.9 1542.06 314.057 1465.95 346.888C1421.99 365.968 1377.12 368.454 1333.15 386.502C1284.05 406.493 1232.58 419.64 1180.12 427.339C1144.16 432.623 1107.7 435.342 1071.19 435.926C999.282 437.08 927.122 430.046 858.428 414.325C818.267 405.134 779.389 393.294 741.741 379.775C714.195 369.882 687.036 359.074 660.147 347.727C621.512 331.277 583.021 313.351 540.867 302.953C526.225 299.388 511.29 296.792 496.192 295.049C431.336 287.449 363.022 292.099 302.611 311.358C287.096 316.305 272.078 322.155 257.549 328.92C201.664 354.936 151.116 393.218 107.307 438.086C99.8127 445.751 92.4137 453.678 85.0299 461.718C58.6759 490.411 32.4587 520.553 2.47547 545.514C-15.4317 560.43 -34.6068 574.036 -56.4204 582.467C-70.0301 587.733 -84.0764 590.588 -98.548 591.43C-113.722 592.315 -128.596 591.563 -143.925 590.348C-196.246 586.116 -254.257 579.237 -305.454 595.845" stroke="white" stroke-opacity="0.8" stroke-miterlimit="10"/>
<path d="M1633.72 181.76C1601.54 254.307 1541.22 316.977 1465.6 349.674C1421.02 369.05 1375.53 371.218 1331.03 389.805C1281.45 410.369 1229.41 424.161 1176.35 432.316C1139.97 437.915 1103.08 440.857 1066.13 441.499C993.372 442.763 920.35 435.167 850.843 418.228C810.204 408.323 770.874 395.545 732.763 380.952C704.849 370.265 677.367 358.595 650.19 346.356C611.114 328.639 572.225 309.407 529.547 298.219C514.737 294.377 499.621 291.568 484.337 289.685C418.611 281.489 349.39 287.487 288.22 308.446C272.522 313.826 257.333 320.127 242.637 327.34C186.198 355.038 135.51 395.123 91.761 441.583C84.2785 449.521 76.8984 457.713 69.526 466.016C43.2176 495.642 17.0232 526.608 -13.1764 552.036C-31.2165 567.233 -50.6194 580.895 -72.7177 589.521C-86.5058 594.904 -100.734 597.945 -115.358 599.076C-130.771 600.268 -145.983 599.839 -161.608 598.89C-214.92 595.568 -273.322 588.499 -325.373 604.789" stroke="white" stroke-opacity="0.8" stroke-miterlimit="10"/>
<path d="M1630.25 183.445C1599.85 256.714 1540.39 319.903 1465.25 352.464C1420.06 372.133 1373.95 373.986 1328.91 393.108C1278.85 414.245 1226.24 428.683 1172.58 437.293C1135.78 443.204 1098.46 446.373 1061.07 447.072C987.453 448.442 913.573 440.292 843.25 422.134C802.136 411.52 762.378 397.735 723.777 382.136C695.517 370.611 667.69 358.121 640.22 344.993C600.701 326.008 561.42 305.466 518.211 293.489C503.231 289.37 487.939 286.348 472.469 284.324C405.878 275.532 335.704 282.764 273.812 305.542C257.925 311.324 242.573 318.108 227.71 325.769C170.712 355.152 119.884 397.037 76.2035 445.083C68.7324 453.29 61.3676 461.756 54.0065 470.317C27.7437 500.873 1.56822 532.667 -28.844 558.558C-47.0169 574.032 -66.6514 587.759 -89.0306 596.574C-103.001 602.079 -117.408 605.298 -132.187 606.722C-147.835 608.229 -163.389 608.119 -179.31 607.432C-233.609 605.021 -292.402 597.759 -345.308 613.737" stroke="white" stroke-opacity="0.8" stroke-miterlimit="10"/>
<path d="M1626.78 185.127C1598.17 259.117 1539.55 322.823 1464.9 355.251C1419.1 375.216 1372.36 376.753 1326.79 396.411C1276.25 418.122 1223.07 433.201 1168.82 442.27C1131.6 448.496 1093.84 451.89 1056.01 452.642C981.543 454.122 906.801 445.41 835.662 426.037C794.073 414.709 753.859 399.998 714.795 383.313C686.167 371.002 658.018 357.639 630.259 343.627C590.299 323.374 550.62 301.526 506.883 288.755C491.736 284.355 476.262 281.125 460.61 278.961C393.15 269.572 322.071 278.171 259.413 302.631C243.347 308.853 227.805 316.054 212.795 324.19C155.175 355.141 104.274 398.943 60.6542 448.58C53.1983 457.06 45.8448 465.792 38.499 474.611C12.2817 506.097 -13.8711 538.723 -44.4997 565.077C-62.8054 580.831 -82.6677 594.62 -105.332 603.624C-119.484 609.25 -134.07 612.652 -149 614.36C-164.884 616.179 -180.779 616.388 -196.993 615.962C-252.283 614.463 -311.467 607.011 -365.227 622.674" stroke="white" stroke-opacity="0.8" stroke-miterlimit="10"/>
<path d="M1623.31 186.81C1596.49 261.525 1538.72 325.743 1464.55 358.038C1418.13 378.295 1370.78 379.518 1324.67 399.71C1273.64 421.998 1219.91 437.719 1165.05 447.244C1127.41 453.781 1089.22 457.399 1050.96 458.211C975.627 459.802 900.027 450.527 828.076 429.936C786.009 417.898 745.339 402.257 705.816 384.487C676.82 371.393 648.344 357.157 620.297 342.253C579.893 320.732 539.823 297.578 495.558 284.014C480.24 279.337 464.588 275.894 448.749 273.589C380.423 263.605 308.438 273.574 245.013 299.712C228.769 306.37 213.052 314.027 197.874 322.607C139.711 355.278 88.6586 400.841 45.0998 452.069C37.6553 460.819 30.3208 469.82 22.9864 478.901C-3.18535 511.318 -29.3191 544.771 -60.1603 571.591C-78.5989 587.627 -98.6927 601.472 -121.638 610.671C-135.972 616.418 -150.732 620.002 -165.819 621.999C-181.938 624.132 -198.175 624.66 -214.685 624.497C-270.961 623.905 -330.537 616.266 -385.15 631.611" stroke="white" stroke-opacity="0.8" stroke-miterlimit="10"/>
<path d="M1619.84 188.495C1594.81 263.931 1537.89 328.669 1464.2 360.832C1417.17 381.385 1369.2 382.288 1322.55 403.016C1271.04 425.878 1216.74 442.243 1161.28 452.228C1123.23 459.08 1084.6 462.922 1045.9 463.787C969.716 465.488 893.258 455.656 820.487 433.846C777.946 421.094 736.816 404.527 696.83 385.671C667.466 371.792 638.667 356.682 610.327 340.89C569.483 318.1 529.014 293.637 484.222 279.283C468.737 274.329 452.906 270.677 436.882 268.228C367.687 257.648 294.798 268.988 230.606 296.807C214.183 303.906 198.296 312.019 182.947 321.035C124.237 355.426 73.0366 402.754 29.5385 455.572C22.1054 464.592 14.7861 473.863 7.46687 483.205C-18.6593 516.552 -44.7741 550.833 -75.8279 578.117C-94.3994 594.433 -114.721 608.339 -137.951 617.727C-152.468 623.597 -167.399 627.393 -182.648 629.648C-198.999 632.127 -215.581 632.939 -232.387 633.042C-289.655 633.361 -349.621 625.533 -405.089 640.562" stroke="white" stroke-opacity="0.8" stroke-miterlimit="10"/>
<path d="M1616.36 190.177C1593.13 266.334 1537.05 331.589 1463.85 363.618C1416.2 384.464 1367.62 385.052 1320.43 406.319C1268.44 429.754 1213.58 446.765 1157.52 457.205C1043.33 478.472 923.868 472.474 812.902 437.749C738.259 414.39 667.948 378.895 600.37 339.52C559.082 315.462 518.222 289.693 472.902 274.546C389.584 246.7 296.203 257.573 216.215 293.892C136.227 330.211 68.8041 390.409 13.9969 459.065C-35.7422 521.366 -80.4171 594.696 -154.244 624.778C-238.677 659.18 -336.789 626.452 -425 649.499" stroke="white" stroke-opacity="0.8" stroke-miterlimit="10"/>
<path d="M1440.1 671.582C1441.04 575.327 1407 479.106 1345.76 404.846C1328.33 383.72 1307.89 363.744 1282.13 354.477C1207.66 327.706 1128.15 386.229 1065.55 419.458C990 459.555 915.304 501.576 836.641 535.413C792.478 554.409 740.609 570.532 697.89 548.483C654.631 526.154 638.17 474.159 620.286 428.881C599.448 376.12 570.751 325.295 528.628 287.301C486.504 249.308 429.559 225.323 373.169 231.507C329.01 236.351 288.773 258.757 252.029 283.725C155.485 349.333 73.4661 436.189 13.4883 536.331" stroke="white" stroke-opacity="0.8" stroke-miterlimit="10"/>
<path d="M1442.52 667.421C1443.34 582.35 1413.42 499.089 1360.36 427.681C1355.43 421.049 1350.36 414.526 1345.06 408.183C1327.67 387.345 1307.4 367.623 1282 358.284C1208.53 331.243 1130.23 386.707 1067.71 418.744C1012.29 447.148 957.253 477.139 900.263 504.286C880.492 513.743 860.55 522.85 840.353 531.441C796.544 550.073 745.29 565.98 702.889 544.96C659.957 523.674 642.961 473.692 624.583 430.186C603.164 379.494 574.137 330.643 532.093 294.115C517.455 281.398 501.074 270.313 483.577 261.517C450.837 245.048 414.188 236.582 377.77 240.432C334.025 245.056 294.08 266.554 257.571 290.384C183.657 338.593 118.342 398.434 64.4951 467.367C48.4253 487.936 33.3806 509.309 19.4443 531.43" stroke="white" stroke-opacity="0.8" stroke-miterlimit="10"/>
<path d="M1444.93 663.264C1445.73 581.028 1414.21 502.38 1359.64 430.718C1354.68 424.215 1349.64 417.776 1344.37 411.527C1326.99 390.982 1306.91 371.51 1281.87 362.096C1209.38 334.781 1132.31 387.189 1069.87 418.038C1015.03 445.136 960.477 474.333 903.517 500.908C883.89 510.14 864.096 519.054 844.063 527.478C800.607 545.749 749.964 561.436 707.886 541.444C665.28 521.199 647.748 473.229 628.881 431.5C606.885 382.877 577.521 336 535.56 300.941C520.948 288.736 504.647 278.095 487.267 269.656C454.76 253.848 418.448 245.701 382.376 249.368C339.045 253.776 299.396 274.363 263.118 297.05C189.645 342.936 124.758 399.489 70.7559 465.253C54.6406 484.876 39.4972 505.311 25.4053 526.536" stroke="white" stroke-opacity="0.8" stroke-miterlimit="10"/>
<path d="M1447.34 659.104C1448.11 579.704 1415.02 505.668 1358.93 433.751C1353.95 427.37 1348.94 421.018 1343.68 414.868C1326.33 394.611 1306.42 375.398 1281.75 365.907C1210.24 338.323 1134.41 387.675 1072.04 417.328C1017.79 443.124 963.65 471.392 906.782 497.529C887.276 506.496 867.653 515.258 847.78 523.515C804.676 541.422 754.645 556.892 712.893 537.929C670.614 518.724 652.547 472.77 633.186 432.813C610.609 386.259 580.915 341.357 539.038 307.763C524.448 296.071 508.231 285.874 490.969 277.788C458.689 262.64 422.723 254.812 386.988 258.301C344.071 262.492 304.718 282.169 268.672 303.713C195.635 347.279 131.182 400.541 77.0237 463.138C60.8628 481.816 45.6245 501.314 31.377 521.647" stroke="white" stroke-opacity="0.8" stroke-miterlimit="10"/>
<path d="M1449.75 654.946C1450.5 578.382 1415.85 508.952 1358.2 436.788C1353.2 430.531 1348.22 424.264 1342.98 418.212C1325.66 398.248 1305.92 379.285 1281.61 369.718C1211.1 341.865 1136.5 388.169 1074.2 416.622C1020.54 441.123 966.85 468.544 910.031 494.15C890.662 502.881 871.198 511.461 851.484 519.551C808.734 537.097 759.317 552.351 717.885 534.414C675.932 516.252 657.33 472.31 637.475 434.127C614.318 389.642 584.293 346.709 542.495 314.585C527.933 303.401 511.799 293.652 494.651 285.919C462.602 271.436 426.978 263.927 391.581 267.23C349.074 271.201 310.017 289.97 274.207 310.371C201.61 351.614 137.585 401.588 83.268 461.016C67.0577 478.748 51.7245 497.308 37.3213 516.746" stroke="white" stroke-opacity="0.8" stroke-miterlimit="10"/>
<path d="M1452.17 650.786C1452.88 577.058 1416.69 512.229 1357.49 439.822C1352.47 433.687 1347.51 427.51 1342.29 421.554C1324.99 401.878 1305.43 383.17 1281.48 373.531C1211.96 345.408 1138.61 388.667 1076.36 415.916C1023.31 439.135 970.062 465.701 913.289 490.776C894.057 499.272 874.749 507.669 855.198 515.592C812.801 532.774 763.995 547.811 722.885 530.903C681.259 513.781 662.125 471.855 641.773 435.445C618.039 393.025 587.68 352.07 545.962 321.415C531.426 310.744 515.372 301.439 498.341 294.059C466.525 280.237 431.238 273.046 396.187 276.171C354.093 279.925 315.333 297.787 279.754 317.046C207.598 355.969 144.002 402.652 89.5288 458.913C73.273 475.701 57.841 493.323 43.2822 511.864" stroke="white" stroke-opacity="0.8" stroke-miterlimit="10"/>
<path d="M1454.58 646.625C1455.27 575.733 1417.56 515.493 1356.77 442.851C1351.74 436.837 1346.8 430.748 1341.6 424.891C1324.33 405.507 1304.94 387.049 1281.36 377.334C1212.81 348.942 1140.74 389.16 1078.52 415.199C1026.1 437.141 973.274 462.846 916.546 487.385C897.45 495.646 878.298 503.861 858.91 511.613C816.866 528.435 768.676 543.252 727.885 527.372C686.585 511.291 666.916 471.38 646.07 436.743C621.755 396.392 591.066 357.411 549.428 328.221C534.918 318.063 518.947 309.202 502.031 302.179C470.442 289.017 435.501 282.146 400.788 285.088C359.108 288.626 320.64 305.576 285.296 323.692C213.58 360.293 150.414 403.688 95.7849 456.779C79.4797 472.621 63.9529 489.306 49.2422 506.951" stroke="white" stroke-opacity="0.8" stroke-miterlimit="10"/>
<path d="M1456.99 642.468C1457.65 574.412 1418.44 518.758 1356.05 445.888C1351 439.992 1346.08 433.994 1340.91 428.235C1323.66 409.14 1304.44 390.937 1281.23 381.15C1213.67 352.484 1142.87 389.676 1080.68 414.496C1028.88 435.171 976.489 460.01 919.799 484.014C900.84 492.044 881.843 500.069 862.619 507.658C820.928 524.115 773.349 538.715 732.88 523.864C691.907 508.827 671.703 470.925 650.367 438.064C625.475 399.782 594.452 362.776 552.897 335.055C538.414 325.405 522.523 316.992 505.724 310.322C474.367 297.821 439.767 291.272 405.392 294.032C364.126 297.35 325.954 313.393 290.838 330.367C219.563 364.647 156.825 404.751 102.037 454.676C85.6863 469.573 70.0607 485.32 55.1943 502.07" stroke="white" stroke-opacity="0.8" stroke-miterlimit="10"/>
<path d="M1459.4 638.307C1460.04 573.087 1419.35 522.007 1355.34 448.921C1350.28 443.143 1345.38 437.24 1340.22 431.576C1322.99 412.773 1303.95 394.824 1281.1 384.961C1214.53 356.025 1145.01 390.192 1082.85 413.786C1031.68 433.204 979.704 457.167 923.059 480.632C904.241 488.425 885.396 496.268 866.331 503.69C824.993 519.787 778.029 534.167 737.88 520.348C697.232 506.351 676.493 470.465 654.665 439.377C629.191 403.164 597.834 368.132 556.363 341.877C541.907 332.739 526.099 324.77 509.414 318.453C478.288 306.617 444.03 300.383 409.993 302.964C369.141 306.066 331.265 321.198 296.381 337.032C225.546 368.99 163.237 405.806 108.293 452.562C91.8929 466.513 76.1724 481.319 61.1504 497.18" stroke="white" stroke-opacity="0.8" stroke-miterlimit="10"/>
<path d="M1461.82 634.146C1462.42 571.762 1420.27 525.246 1354.62 451.954C1349.55 446.294 1344.66 440.482 1339.53 434.916C1322.32 416.402 1303.46 398.707 1280.98 388.768C1215.39 359.564 1147.17 390.716 1085.01 413.076C1034.49 431.249 982.924 454.331 926.317 477.253C907.636 484.819 888.946 492.472 870.045 499.727C829.06 515.459 782.707 529.623 742.88 516.833C702.559 503.876 681.285 470.006 658.963 440.691C632.909 406.547 601.221 373.488 559.83 348.702C545.4 340.077 529.672 332.553 513.105 326.589C482.207 315.412 448.291 309.502 414.598 311.897C374.16 314.779 336.577 329.003 301.928 343.695C231.533 373.333 169.653 406.858 114.554 450.447C98.1082 463.453 82.2891 477.321 67.1152 492.286" stroke="white" stroke-opacity="0.8" stroke-miterlimit="10"/>
<path d="M1464.23 629.99C1464.81 570.441 1421.21 528.481 1353.9 454.988C1348.82 449.441 1343.95 443.724 1338.83 438.254C1321.66 420.031 1302.97 402.587 1280.84 392.577C1216.24 363.102 1149.33 391.248 1087.17 412.363C1037.3 429.302 986.14 451.491 929.567 473.867C911.026 481.201 892.489 488.669 873.75 495.756C833.118 511.128 787.381 525.071 747.872 513.31C707.878 501.394 686.069 469.539 663.253 441.997C636.622 409.922 604.6 378.838 563.289 355.517C548.885 347.401 533.237 340.321 516.788 334.713C486.121 324.198 452.547 318.606 419.192 320.823C379.164 323.488 341.881 336.801 307.463 350.35C237.509 377.665 176.058 407.899 120.799 448.322C104.308 460.382 88.39 473.313 73.0605 487.382" stroke="white" stroke-opacity="0.8" stroke-miterlimit="10"/>
<path d="M1466.64 625.829C1467.19 569.116 1422.16 531.696 1353.19 458.021C1348.1 452.588 1343.24 446.97 1338.14 441.594C1320.99 423.66 1302.47 406.471 1280.72 396.384C1217.1 366.64 1151.5 391.794 1089.33 411.653C1040.13 427.369 989.363 448.655 932.828 470.488C914.428 477.594 896.042 484.872 877.467 491.793C837.188 506.799 792.062 520.531 752.88 509.795C713.212 498.922 690.871 469.076 667.558 443.314C640.346 413.304 607.994 384.198 566.766 362.342C552.39 354.738 536.825 348.103 520.489 342.852C490.054 332.997 456.821 327.724 423.805 329.759C384.191 332.207 347.199 344.61 313.017 357.02C243.503 382.015 182.482 408.957 127.067 446.21C110.526 457.326 94.5136 469.318 79.0322 482.492" stroke="white" stroke-opacity="0.8" stroke-miterlimit="10"/>
<path d="M1469.05 621.672C1469.57 567.795 1423.14 534.9 1352.47 461.058C1347.38 455.74 1342.54 450.205 1337.45 444.939C1320.35 427.264 1301.98 410.362 1280.59 400.2C1217.96 370.182 1153.68 392.357 1091.49 410.951C1042.96 425.46 992.586 445.835 936.085 467.113C917.825 473.992 899.595 481.076 881.176 487.83C841.25 502.476 796.738 515.987 757.876 506.28C718.534 496.447 695.658 468.617 671.855 444.628C644.062 416.687 611.38 389.555 570.232 369.169C555.882 362.077 540.397 355.885 524.179 350.988C493.972 341.797 461.081 336.843 428.41 338.696C389.209 340.924 352.514 352.419 318.564 363.687C249.49 386.358 188.897 410.013 133.327 444.1C116.741 454.27 100.629 465.325 84.9922 477.606" stroke="white" stroke-opacity="0.8" stroke-miterlimit="10"/>
<path d="M1471.47 617.511C1471.96 566.47 1424.14 538.085 1351.75 464.091C1346.66 458.883 1341.83 453.45 1336.75 448.28C1319.69 430.893 1301.49 414.246 1280.46 404.007C1218.81 373.72 1155.87 392.93 1093.65 410.237C1045.8 423.551 995.805 443.003 939.342 463.731C921.226 470.382 903.145 477.276 884.888 483.862C845.315 498.144 801.415 511.439 762.875 502.76C723.86 493.968 700.448 468.153 676.152 445.937C647.782 420.065 614.766 394.907 573.697 375.987C559.37 369.404 543.972 363.66 527.865 359.116C497.889 350.586 465.34 345.95 433.006 347.621C394.22 349.633 357.821 360.217 324.102 370.342C255.468 390.693 195.305 411.057 139.575 441.974C122.94 451.199 106.733 461.316 90.9404 472.701" stroke="white" stroke-opacity="0.8" stroke-miterlimit="10"/>
<path d="M1473.88 613.35C1474.34 565.145 1425.15 541.255 1351.03 467.124C1345.93 462.026 1341.11 456.692 1336.06 451.62C1319.02 434.522 1300.99 418.129 1280.33 407.818C1219.67 377.262 1158.07 393.518 1095.81 409.531C1048.65 421.663 999.032 440.182 942.596 460.352C924.621 466.775 906.691 473.479 888.597 479.899C849.378 493.82 806.092 506.894 767.871 499.245C729.183 491.496 705.236 467.694 680.446 447.251C651.496 423.448 618.145 400.264 577.16 382.812C562.859 376.742 547.541 371.442 531.551 367.251C501.807 359.381 469.599 355.065 437.604 356.557C399.231 358.353 363.125 368.026 329.637 377.011C261.444 395.04 201.71 412.116 145.824 439.867C129.143 448.147 112.838 457.326 96.8936 467.815" stroke="white" stroke-opacity="0.8" stroke-miterlimit="10"/>
<path d="M1476.29 609.193C1476.73 563.824 1426.19 544.409 1350.32 470.157C1345.22 465.169 1340.41 459.934 1335.37 454.961C1318.36 438.151 1300.5 422.013 1280.2 411.626C1220.53 380.8 1160.28 394.121 1097.98 408.817C1051.5 419.78 1002.26 437.357 945.853 456.969C928.018 463.168 910.24 469.679 892.31 475.932C853.444 489.488 810.769 502.346 772.871 495.726C734.509 489.018 710.027 467.227 684.743 448.56C655.216 426.826 621.531 405.617 580.63 389.63C566.356 384.072 551.121 379.217 535.245 375.383C505.729 368.174 473.863 364.18 442.213 365.49C404.254 367.065 368.443 375.831 335.187 383.674C267.435 399.383 208.129 413.167 152.088 437.748C135.358 445.079 118.958 453.321 102.857 462.918" stroke="white" stroke-opacity="0.8" stroke-miterlimit="10"/>
<path d="M1478.7 605.033C1479.11 562.499 1427.24 547.541 1349.6 473.191C1344.5 468.309 1339.69 463.176 1334.67 458.302C1317.69 441.784 1299.98 425.938 1280.07 415.438C1221.32 384.46 1162.49 394.748 1100.13 408.111C1054.35 417.924 1005.48 434.544 949.106 453.59C931.415 459.566 913.785 465.883 896.018 471.968C857.505 485.164 815.446 497.802 777.866 492.21C739.827 486.542 714.813 466.767 689.04 449.874C658.932 430.209 624.917 410.973 584.095 396.456C569.848 391.407 554.693 387 538.934 383.518C509.65 376.973 478.125 373.295 446.813 374.422C409.264 375.781 373.75 383.636 340.73 390.336C273.417 403.722 214.54 414.219 158.34 435.634C141.564 442.019 125.065 449.323 108.81 458.028" stroke="white" stroke-opacity="0.8" stroke-miterlimit="10"/>
<path d="M1481.12 600.876C1481.5 561.178 1428.31 550.658 1348.88 476.228C1343.78 471.452 1338.98 466.426 1333.99 461.646C1317.02 445.417 1299.5 429.826 1279.95 419.253C1222.19 388.002 1164.72 395.393 1102.31 407.409C1057.22 416.087 1008.72 431.739 952.371 450.22C934.824 455.975 917.342 462.094 899.735 468.013C861.575 480.844 820.127 493.266 782.87 488.707C745.157 484.083 719.612 466.32 693.341 451.199C662.652 433.603 628.307 416.341 587.565 403.29C573.344 398.753 558.269 394.79 542.628 391.662C513.575 385.777 482.392 382.421 451.418 383.367C414.283 384.506 379.065 391.457 346.276 397.014C279.404 408.081 220.952 415.286 164.6 433.531C147.775 438.971 131.185 445.338 114.773 453.147" stroke="white" stroke-opacity="0.8" stroke-miterlimit="10"/>
<path d="M1483.53 596.715C1483.88 559.849 1429.4 553.753 1348.16 479.262C1343.07 474.592 1338.27 469.668 1333.29 464.987C1316.35 449.051 1299 433.71 1279.81 423.061C1223.04 391.54 1166.93 396.058 1104.46 406.695C1060.08 414.254 1011.94 428.926 955.621 446.833C938.219 452.368 920.885 458.287 903.441 464.042C865.633 476.513 824.8 488.718 787.862 485.184C750.476 481.6 724.396 465.853 697.632 452.505C666.365 436.975 631.686 421.687 591.024 410.104C576.83 406.08 561.838 402.561 546.311 399.786C517.486 394.562 486.645 391.525 456.012 392.288C419.291 393.211 384.368 399.251 351.811 403.666C285.38 412.409 227.357 416.323 170.849 431.405C153.978 435.9 137.29 441.329 120.723 448.242" stroke="white" stroke-opacity="0.8" stroke-miterlimit="10"/>
<path d="M1485.94 592.554C1486.27 558.524 1430.51 556.82 1347.45 482.291C1342.36 477.724 1337.56 472.91 1332.6 468.324C1315.69 452.676 1298.51 437.589 1279.69 426.869C1223.9 395.075 1169.17 396.741 1106.63 405.985C1062.96 412.439 1015.18 426.124 958.882 443.455C941.624 448.769 924.438 454.49 907.157 460.075C869.703 472.181 829.481 484.17 792.866 481.664C755.806 479.121 729.19 465.386 701.933 453.815C670.086 440.353 635.076 427.039 594.497 416.926C580.33 413.411 565.418 410.339 550.008 407.921C521.415 403.358 490.915 400.64 460.625 401.225C424.317 401.931 389.687 407.059 357.365 410.332C291.374 416.755 233.78 417.378 177.113 429.291C160.197 432.84 143.409 437.331 126.687 443.348" stroke="white" stroke-opacity="0.8" stroke-miterlimit="10"/>
<path d="M1488.35 588.397C1488.65 557.203 1431.64 559.868 1346.73 485.328C1341.64 480.863 1336.84 476.156 1331.91 471.669C1315.02 456.313 1298.01 441.477 1279.56 430.68C1224.76 398.613 1171.4 397.455 1108.79 405.275C1065.83 410.639 1018.41 423.323 962.136 440.072C945.022 445.167 927.988 450.69 910.867 456.108C873.766 467.853 834.155 479.622 797.866 478.145C761.133 476.646 733.982 464.923 706.231 455.124C673.803 443.732 638.459 432.392 597.964 423.744C583.823 420.741 568.994 418.114 553.699 416.049C525.337 412.15 495.179 409.751 465.226 410.15C429.332 410.635 394.999 414.857 362.908 416.99C297.358 421.09 240.193 418.426 183.37 427.168C166.404 429.773 149.522 433.326 132.647 438.447" stroke="white" stroke-opacity="0.8" stroke-miterlimit="10"/>
<path d="M1490.76 584.236C1491.04 555.878 1432.78 562.89 1346.01 488.361C1340.93 483.995 1336.13 479.398 1331.21 475.009C1314.35 459.945 1297.54 445.326 1279.43 434.491C1225.67 402.044 1173.63 398.195 1110.94 404.569C1068.69 408.862 1021.64 420.528 965.389 436.697C948.42 441.575 931.534 446.898 914.575 452.148C877.827 463.529 838.832 475.081 802.862 474.633C766.455 474.174 738.769 464.467 710.528 456.441C677.523 447.118 641.845 437.752 601.43 430.573C587.315 428.083 572.566 425.9 557.389 424.188C529.254 420.95 499.442 418.869 469.827 419.09C434.343 419.359 400.305 422.67 368.447 423.66C303.336 425.441 246.601 419.484 189.622 425.061C172.611 426.72 155.63 429.332 138.6 433.565" stroke="white" stroke-opacity="0.8" stroke-miterlimit="10"/>
<path d="M1493.18 580.08C1493.42 554.557 1433.94 565.889 1345.3 491.398C1340.22 487.135 1335.42 482.648 1330.52 478.354C1313.68 463.583 1297.05 449.214 1279.3 438.303C1226.54 405.583 1175.87 398.962 1113.11 403.863C1071.57 407.105 1024.88 417.742 968.65 433.318C951.824 437.98 935.087 443.101 918.288 448.185C881.893 459.205 843.508 470.537 807.861 471.118C771.781 471.699 743.559 464.008 714.825 457.755C681.239 450.5 645.231 443.109 604.895 437.396C590.804 435.414 576.142 433.675 561.079 432.32C533.176 429.742 503.701 427.981 474.432 428.023C439.362 428.076 405.62 430.475 373.993 430.323C309.323 429.78 253.016 420.536 195.878 422.943C178.817 423.657 161.742 425.331 144.56 428.668" stroke="white" stroke-opacity="0.8" stroke-miterlimit="10"/>
<path d="M1495.59 575.919C1495.81 553.232 1435.12 568.854 1344.58 494.428C1339.51 490.263 1334.7 485.886 1329.83 481.691C1313.01 467.212 1296.56 453.093 1279.18 442.111C1227.39 409.121 1178.1 399.755 1115.27 403.149C1074.44 405.355 1028.11 414.948 971.903 429.936C955.222 434.381 938.632 439.298 921.997 444.218C885.954 454.874 848.185 465.99 812.857 467.599C777.103 469.224 748.35 463.541 719.118 459.065C684.952 453.879 648.613 448.462 608.361 444.218C594.296 442.749 579.714 441.454 564.768 440.456C537.093 438.538 507.964 437.1 479.033 436.955C444.376 436.788 410.931 438.28 379.535 436.986C315.306 434.123 259.428 421.588 202.134 420.829C185.028 420.597 167.853 421.334 150.516 423.775" stroke="white" stroke-opacity="0.8" stroke-miterlimit="10"/>
<path d="M1498 571.758C1498.2 551.907 1436.32 571.792 1343.86 497.461C1338.8 493.391 1333.98 489.139 1329.14 485.032C1312.31 470.875 1296.06 456.977 1279.05 445.922C1228.25 412.663 1180.32 400.583 1117.43 402.443C1077.3 403.628 1031.35 412.173 975.161 426.557C958.628 430.79 942.182 435.501 925.71 440.254C890.021 450.55 852.863 461.445 817.857 464.084C782.43 466.749 753.141 463.082 723.416 460.379C688.673 457.258 652 453.819 611.828 451.04C597.789 450.083 583.287 449.233 568.459 448.587C541.015 447.334 512.228 446.211 483.634 445.888C449.392 445.505 416.238 446.086 385.078 443.652C321.289 438.466 265.84 422.643 208.391 418.714C191.235 417.537 173.966 417.336 156.473 418.881" stroke="white" stroke-opacity="0.8" stroke-miterlimit="10"/>
<path d="M1500.41 567.601C1500.58 550.586 1437.54 574.704 1343.14 500.498C1338.09 496.527 1333.27 492.389 1328.44 488.372C1311.65 474.508 1295.57 460.864 1278.92 449.73C1229.11 416.201 1182.54 401.441 1119.59 401.729C1080.17 401.911 1034.59 409.39 978.418 423.175C962.029 427.195 945.731 431.701 929.423 436.283C894.087 446.214 857.543 456.897 822.856 460.561C787.756 464.266 757.932 462.614 727.714 461.684C692.389 460.633 655.386 459.167 615.294 457.854C601.281 457.406 586.863 457.003 572.149 456.711C544.937 456.119 516.487 455.318 488.235 454.809C454.406 454.209 421.549 453.879 390.621 450.303C327.272 442.798 272.252 423.683 214.643 416.588C197.442 414.466 180.074 413.327 162.429 413.98" stroke="white" stroke-opacity="0.8" stroke-miterlimit="10"/>
<path d="M1502.83 563.44C1502.96 549.261 1438.77 577.581 1342.43 503.531C1337.38 499.655 1332.56 495.631 1327.75 491.713C1310.98 478.137 1295.08 464.748 1278.79 453.541C1229.97 419.742 1184.75 402.333 1121.75 401.023C1083.02 400.218 1037.82 406.622 981.675 419.796C965.43 423.607 949.281 427.905 933.131 432.32C898.148 441.89 862.216 452.353 827.852 457.049C793.078 461.794 762.719 462.159 732.011 463.001C696.109 464.019 658.772 464.527 618.759 464.683C604.774 464.748 590.435 464.789 575.838 464.85C548.854 464.918 520.75 464.436 492.84 463.749C459.425 462.929 426.86 461.692 396.167 456.973C333.258 447.144 278.668 424.738 220.903 414.477C203.656 411.41 186.19 409.333 168.389 409.09" stroke="white" stroke-opacity="0.8" stroke-miterlimit="10"/>
<path d="M1505.24 559.284C1505.35 547.94 1440.03 580.429 1341.71 506.568C1336.68 502.787 1331.85 498.877 1327.06 495.058C1310.31 481.774 1294.59 468.635 1278.66 457.353C1230.83 423.281 1186.95 403.259 1123.92 400.317C1085.86 398.54 1041.06 403.859 984.932 416.421C968.836 420.024 952.831 424.112 936.844 428.36C902.215 437.566 866.898 447.813 832.852 453.537C798.405 459.327 767.51 461.7 736.309 464.319C699.826 467.405 662.155 469.888 622.226 471.509C608.267 472.086 594.012 472.572 579.525 472.986C552.772 473.715 525.01 473.552 497.438 472.682C464.432 471.646 432.168 469.497 401.706 463.639C339.238 451.491 285.076 425.794 227.156 412.363C209.86 408.35 192.298 405.336 174.342 404.197" stroke="white" stroke-opacity="0.8" stroke-miterlimit="10"/>
<path d="M1507.65 555.123C1507.74 546.615 1441.29 583.238 1340.99 509.597C1335.97 505.907 1331.14 502.119 1326.37 498.395C1309.64 485.4 1294.09 472.515 1278.54 461.16C1231.68 426.819 1189.14 404.216 1126.08 399.603C1088.7 396.87 1044.31 401.095 988.189 413.035C972.237 416.429 956.384 420.305 940.557 424.389C906.28 433.235 871.574 443.261 837.856 450.015C803.734 456.844 772.305 461.233 740.61 465.625C703.546 470.78 665.545 475.237 625.699 478.327C611.767 479.413 597.591 480.347 583.222 481.118C556.701 482.511 529.277 482.667 502.046 481.615C469.455 480.358 437.486 477.302 407.252 470.302C345.225 455.834 291.492 426.846 233.412 410.248C216.071 405.29 198.41 401.335 180.302 399.304" stroke="white" stroke-opacity="0.8" stroke-miterlimit="10"/>
<path d="M1510.06 550.962C1510.12 545.29 1442.58 586.013 1340.28 512.631C1335.26 509.032 1330.43 505.361 1325.68 501.735C1308.98 489.033 1293.6 476.402 1278.41 464.968C1232.54 430.357 1191.31 405.207 1128.24 398.893C1091.53 395.219 1047.54 398.343 991.446 409.656C975.642 412.845 959.933 416.508 944.27 420.426C910.346 428.907 876.255 438.717 842.855 446.499C809.06 454.369 777.096 460.773 744.907 466.938C707.266 474.163 668.931 480.594 629.165 485.149C615.259 486.747 601.167 488.125 586.912 489.249C560.619 491.303 533.54 491.778 506.651 490.548C474.473 489.075 442.797 485.107 412.799 476.964C351.211 460.173 297.907 427.897 239.672 408.13C222.281 402.227 204.526 397.333 186.262 394.41" stroke="white" stroke-opacity="0.8" stroke-miterlimit="10"/>
<path d="M1512.47 546.805C1512.5 543.969 1443.88 588.754 1339.56 515.667C1334.55 512.16 1329.71 508.61 1324.98 505.08C1308.31 492.666 1293.1 480.29 1278.28 468.783C1233.4 433.903 1193.45 406.239 1130.4 398.187C1094.33 393.582 1050.79 395.666 994.696 406.277C979.04 409.28 963.476 412.712 947.975 416.462C914.405 424.583 880.925 434.172 847.848 442.983C814.38 451.897 781.883 460.314 749.197 468.252C710.976 477.545 672.311 485.95 632.624 491.975C618.745 494.086 604.733 495.908 590.595 497.385C564.534 500.099 537.796 500.892 511.245 499.48C479.481 497.791 448.101 492.916 418.334 483.631C357.187 464.52 304.312 428.952 245.921 406.019C228.485 399.17 210.631 393.339 192.215 389.52" stroke="white" stroke-opacity="0.8" stroke-miterlimit="10"/>
<path d="M1514.89 542.644C1514.89 542.644 1445.2 591.457 1338.84 518.701C1232.49 445.945 1195.87 367.445 997.957 402.898C861.191 427.4 732.17 487.495 594.292 505.516C537.564 512.93 478.11 509.438 423.884 490.293C363.177 468.859 310.731 430.004 252.181 403.901C234.695 396.107 216.75 389.338 198.175 384.623" stroke="white" stroke-opacity="0.8" stroke-miterlimit="10"/>
<rect x="-1" width="1442" height="810" fill="url(#paint0_radial_78_170)"/>
</g>
<defs>
<radialGradient id="paint0_radial_78_170" cx="0" cy="0" r="1" gradientUnits="userSpaceOnUse" gradientTransform="translate(720 405) rotate(90) scale(405 721)">
<stop offset="0.550189" stop-opacity="0.86"/>
<stop offset="0.862689" stop-opacity="0.98"/>
</radialGradient>
<clipPath id="clip0_78_170">
<rect width="1440" height="810" fill="white"/>
</clipPath>
</defs>
</svg>
