<svg width="414" height="920" viewBox="0 0 414 920" fill="none" xmlns="http://www.w3.org/2000/svg">
<rect width="414" height="920" fill="black"/>
<g clip-path="url(#clip0_1153_253)">
<path d="M771 228.625C692.246 275.873 609.912 319.151 521.682 350.938C493.077 361.245 463.682 370.373 433.118 374.457C370.794 382.785 307.593 369.779 244.582 368.034C164.556 365.816 84.0818 382.495 13.2504 415.213C-40.0459 439.833 -100.008 475.543 -160.298 484.505C-215.067 492.646 -273.985 448.351 -322.487 431.068C-372.165 413.367 -427.728 409.597 -480.193 418.703C-507.678 423.474 -534.412 431.775 -559.061 443.499C-582.633 454.713 -603.167 475.583 -631.111 459.181C-640.348 453.759 -646.733 445.405 -654.671 438.575C-682.259 414.842 -730.502 412.987 -760.341 434.514" stroke="white" stroke-opacity="0.8" stroke-miterlimit="10"/>
<path d="M767.526 230.107C690.564 277.99 609.076 321.721 521.332 353.391C492.116 363.955 462.098 372.807 430.999 377.364C393.472 382.819 355.555 380.797 317.516 377.921C291.549 375.96 265.526 373.597 239.529 372.937C188.172 371.635 136.634 377.267 87.498 389.129C58.7675 396.065 30.8647 405.137 4.27162 416.255C-14.41 424.025 -33.8356 433.027 -53.7586 441.792C-81.7791 454.084 -110.794 465.895 -140.276 473.459C-150.86 476.185 -161.501 478.364 -172.154 479.795C-216.191 485.687 -262.84 460.734 -304.801 442.376C-316.049 437.431 -326.96 432.96 -337.403 429.684C-380.328 416.094 -427.14 412.684 -472.449 418.603C-480.251 419.621 -488.01 420.916 -495.705 422.484C-523.145 428.072 -549.856 437.101 -574.721 449.233C-589.447 456.419 -603.106 467.116 -618.132 470.496C-627.384 472.578 -637.11 471.847 -647.929 465.902C-657.382 460.707 -664.128 452.679 -672.362 446.083C-700.941 423.151 -749.572 421.129 -780.269 442.379" stroke="white" stroke-opacity="0.8" stroke-miterlimit="10"/>
<path d="M764.052 231.586C688.882 280.105 608.241 324.287 520.979 355.841C491.147 366.664 460.511 375.239 428.877 380.264C390.868 386.223 352.385 384.768 313.746 382.293C287.362 380.604 260.902 378.439 234.468 377.832C182.254 376.624 129.857 381.765 79.9053 392.559C50.7003 398.868 22.342 407.126 -4.71427 417.289C-23.7641 424.373 -43.5124 432.607 -63.7277 440.588C-92.1886 451.765 -121.602 462.429 -151.612 469.299C-162.367 471.781 -173.183 473.773 -184.025 475.081C-228.928 480.449 -276.484 456.7 -319.208 439.821C-330.635 435.263 -341.727 431.219 -352.33 428.303C-395.84 416.338 -442.762 414.367 -488.01 421.68C-495.796 422.935 -503.541 424.469 -511.225 426.265C-538.623 432.671 -565.311 442.427 -590.389 454.968C-605.248 462.402 -619.138 473.152 -634.445 476.699C-643.879 478.885 -653.768 478.264 -664.755 472.625C-674.431 467.657 -681.531 459.96 -690.061 453.594C-719.626 431.463 -768.652 429.274 -800.199 450.244" stroke="white" stroke-opacity="0.8" stroke-miterlimit="10"/>
<path d="M760.583 233.062C687.2 282.216 607.406 326.855 520.634 358.288C490.187 369.369 458.932 377.667 426.762 383.165C388.272 389.632 349.223 388.741 309.984 386.665C283.183 385.254 256.29 383.285 229.415 382.725C176.347 381.614 123.089 386.262 72.3245 395.984C42.6412 401.67 13.8576 409.177 -13.6921 418.319C-33.0912 424.758 -53.1851 432.179 -73.6852 439.379C-102.59 449.442 -132.395 458.957 -162.932 465.13C-173.854 467.369 -184.852 469.174 -195.877 470.362C-241.649 475.206 -290.154 452.762 -333.599 437.257C-345.216 433.11 -356.472 429.453 -367.242 426.91C-411.306 416.507 -458.372 416.037 -503.552 424.748C-511.327 426.243 -519.056 428.011 -526.725 430.037C-554.077 437.26 -580.742 447.743 -606.033 460.696C-621.025 468.376 -635.143 479.18 -650.735 482.894C-660.351 485.186 -670.403 484.679 -681.561 479.337C-691.461 474.599 -698.914 467.225 -707.74 461.09C-738.296 439.759 -787.709 437.4 -820.114 458.097" stroke="white" stroke-opacity="0.8" stroke-miterlimit="10"/>
<path d="M757.11 234.545C685.519 284.332 606.571 329.425 520.285 360.745C489.223 372.086 457.365 380.16 424.644 386.072C385.687 393.109 346.061 392.719 306.219 391.047C279.003 389.909 251.674 388.141 224.363 387.631C170.436 386.616 116.32 390.774 64.7398 399.425C34.5819 404.483 5.34281 411.196 -22.6701 419.364C-42.4375 425.13 -62.854 431.766 -83.6464 438.189C-112.992 447.137 -143.195 455.505 -174.26 460.98C-185.353 462.976 -196.529 464.594 -207.736 465.658C-254.374 469.979 -303.794 448.769 -347.998 434.709C-359.797 430.955 -371.22 427.702 -382.157 425.533C-426.768 416.692 -473.982 417.723 -519.101 427.829C-526.865 429.56 -534.579 431.566 -542.232 433.821C-569.539 441.862 -596.185 453.073 -621.689 466.432C-636.813 474.36 -651.159 485.213 -667.036 489.097C-676.834 491.496 -687.054 491.102 -698.374 486.061C-708.503 481.553 -716.304 474.507 -725.427 468.601C-756.974 448.071 -806.778 445.546 -840.033 465.962" stroke="white" stroke-opacity="0.8" stroke-miterlimit="10"/>
<path d="M753.64 236.022C683.841 286.447 605.74 331.994 519.935 363.193C488.259 374.791 455.786 382.602 422.526 388.971C383.09 396.525 342.895 396.689 302.453 395.417C274.82 394.557 247.057 392.985 219.306 392.521C164.526 391.604 109.551 395.267 57.1547 402.851C26.5185 407.285 -3.17233 413.198 -31.6484 420.395C-51.7802 425.483 -72.5081 431.385 -93.6079 436.98C-123.375 444.878 -154.003 451.968 -185.585 456.812C-196.852 458.541 -208.199 459.996 -219.596 460.936C-267.103 464.733 -317.43 444.754 -362.398 432.146C-374.375 428.786 -385.973 425.936 -397.077 424.141C-442.23 416.851 -489.596 419.394 -534.655 430.898C-542.403 432.87 -550.102 435.109 -557.748 437.594C-585.009 446.456 -611.636 458.394 -637.352 472.16C-652.61 480.335 -667.188 491.242 -683.345 495.292C-693.325 497.798 -703.712 497.518 -715.196 492.777C-725.552 488.499 -733.703 481.78 -743.121 476.104C-775.656 456.375 -825.85 453.683 -859.964 473.822" stroke="white" stroke-opacity="0.8" stroke-miterlimit="10"/>
<path d="M750.166 237.504C682.159 288.562 604.904 334.563 519.586 365.646C487.298 377.504 454.206 385.044 420.407 391.877C380.493 399.948 339.728 400.662 298.686 399.795C270.635 399.208 242.436 397.836 214.253 397.423C158.614 396.602 102.782 399.775 49.569 406.284C18.4583 410.091 -11.692 415.206 -40.6274 421.432C-61.1274 425.843 -82.1779 430.971 -103.566 435.779C-133.777 442.572 -164.801 448.495 -196.91 452.652C-208.344 454.133 -219.874 455.408 -231.452 456.222C-279.825 459.495 -331.06 440.747 -376.794 429.587C-388.95 426.62 -400.714 424.172 -411.993 422.757C-457.685 417.018 -505.208 421.072 -550.205 433.971C-557.942 436.18 -565.626 438.655 -573.256 441.368C-600.472 451.047 -627.077 463.712 -653.009 477.889C-668.399 486.311 -683.205 497.271 -699.647 501.488C-709.806 504.101 -720.371 503.937 -732.014 499.493C-742.602 495.449 -751.098 489.05 -760.809 483.605C-794.334 464.677 -844.92 461.814 -879.884 481.68" stroke="white" stroke-opacity="0.8" stroke-miterlimit="10"/>
<path d="M746.693 238.981C680.474 290.674 604.069 337.128 519.233 368.094C486.331 380.209 452.623 387.479 418.286 394.776C377.893 403.361 336.559 404.632 294.917 404.165C266.449 403.855 237.817 402.681 209.193 402.314C152.7 401.59 96.0063 404.269 41.9811 409.711C10.3959 412.894 -20.2137 417.208 -49.6123 422.463C-70.4844 426.196 -91.8576 430.55 -113.534 434.574C-144.19 440.26 -175.604 445.018 -208.241 448.487C-219.842 449.722 -231.554 450.813 -243.319 451.504C-292.561 454.253 -344.695 436.733 -391.196 427.024C-403.53 424.448 -415.466 422.403 -426.916 421.365C-473.143 417.171 -520.829 422.743 -565.762 437.04C-573.487 439.486 -581.156 442.201 -588.771 445.141C-615.941 455.638 -642.527 469.03 -668.672 483.614C-684.195 492.283 -699.232 503.296 -715.955 507.68C-726.296 510.396 -737.036 510.356 -748.835 506.202C-759.658 502.392 -768.496 496.316 -778.503 491.101C-813.015 472.971 -863.992 469.945 -899.813 489.53" stroke="white" stroke-opacity="0.8" stroke-miterlimit="10"/>
<path d="M743.222 240.459C678.795 292.789 603.237 339.697 518.887 370.546C485.37 382.921 451.047 389.918 416.171 397.682C375.3 406.777 333.396 408.609 291.155 408.546C262.272 408.509 233.204 407.535 204.139 407.218C146.789 406.59 89.2368 408.776 34.3954 413.15C2.33185 415.706 -28.7372 419.216 -58.5913 423.506C-79.8354 426.559 -101.527 430.143 -123.493 433.379C-154.592 437.96 -186.398 441.554 -219.566 444.333C-231.338 445.321 -243.224 446.228 -255.175 446.795C-305.283 449.021 -358.317 432.725 -405.592 424.471C-418.105 422.285 -430.208 420.644 -441.828 419.983C-488.591 417.327 -536.436 424.424 -581.304 440.119C-589.015 442.805 -596.668 445.754 -604.276 448.924C-631.4 460.238 -657.967 474.358 -684.325 489.352C-699.98 498.268 -715.245 509.331 -732.253 513.886C-742.776 516.708 -753.694 516.792 -765.645 512.928C-776.704 509.355 -785.883 503.596 -796.186 498.615C-831.689 481.285 -883.057 478.092 -919.729 497.4" stroke="white" stroke-opacity="0.8" stroke-miterlimit="10"/>
<path d="M739.749 241.941C677.114 294.905 602.403 342.267 518.535 372.999C484.402 385.631 449.465 392.358 414.045 400.586C372.696 410.191 330.223 412.584 287.382 412.921C258.082 413.161 228.577 412.38 199.08 412.113C140.875 411.583 82.4612 413.278 26.8074 416.578C-5.73073 418.509 -37.2591 421.215 -67.5726 424.542C-89.1887 426.914 -111.203 429.727 -133.457 432.176C-165.001 435.649 -197.197 438.081 -230.897 440.17C-242.836 440.911 -254.905 441.635 -267.042 442.078C-318.018 443.78 -371.953 428.706 -419.999 421.913C-432.686 420.118 -444.963 418.876 -456.754 418.596C-504.045 417.475 -552.057 426.1 -596.865 443.19C-604.563 446.112 -612.202 449.299 -619.794 452.699C-646.873 464.83 -673.417 479.681 -699.991 495.082C-715.776 504.244 -731.276 515.362 -748.565 520.083C-759.27 523.012 -770.367 523.219 -782.473 519.646C-793.771 516.309 -803.289 510.871 -813.888 506.116C-850.378 489.587 -902.141 486.224 -939.667 505.255" stroke="white" stroke-opacity="0.8" stroke-miterlimit="10"/>
<path d="M736.279 243.419C675.435 297.017 601.571 344.835 518.189 375.448C483.441 388.34 447.889 394.793 411.93 403.488C370.099 413.604 327.064 416.557 283.615 417.294C253.898 417.808 223.96 417.228 194.022 417.011C134.959 416.577 75.6877 417.778 19.2177 420.01C-13.7988 421.315 -45.7864 423.213 -76.5555 425.579C-98.5437 427.267 -120.881 429.312 -143.424 430.977C-175.415 433.34 -207.999 434.614 -242.226 436.015C-254.333 436.509 -266.583 437.05 -278.902 437.37C-330.745 438.548 -385.575 424.691 -434.399 419.36C-447.265 417.955 -459.709 417.114 -471.675 417.214C-519.493 417.621 -567.672 427.781 -612.419 446.269C-620.106 449.432 -627.729 452.851 -635.307 456.482C-662.34 469.431 -688.865 485.009 -715.648 500.817C-731.566 510.226 -747.294 521.397 -764.867 526.285C-775.755 529.321 -787.03 529.655 -799.288 526.368C-810.825 523.272 -820.692 518.167 -831.576 513.626C-869.095 497.968 -921.206 494.368 -959.591 513.122" stroke="white" stroke-opacity="0.8" stroke-miterlimit="10"/>
<path d="M732.805 244.896C673.75 299.131 600.732 347.401 517.84 377.896C482.477 391.046 446.306 397.225 409.812 406.387C367.502 417.01 323.898 420.527 279.849 421.665C249.714 422.455 219.344 422.072 188.966 421.902C129.049 421.565 68.9153 422.272 11.6329 423.436C-21.8581 424.117 -54.3128 425.205 -85.5336 426.609C-107.894 427.614 -130.554 428.888 -153.381 429.769C-185.817 431.02 -218.791 431.14 -253.55 431.848C-265.828 432.098 -278.253 432.452 -290.762 432.648C-343.473 433.302 -399.199 420.66 -448.798 416.793C-461.838 415.776 -474.453 415.335 -486.594 415.822C-534.94 417.751 -583.29 429.452 -627.972 449.334C-635.644 452.734 -643.252 456.394 -650.818 460.251C-677.806 474.018 -704.312 490.323 -731.308 506.542C-747.358 516.198 -763.318 527.419 -781.172 532.477C-792.238 535.62 -803.699 536.084 -816.106 533.077C-827.886 530.225 -838.086 525.433 -849.266 521.119C-887.772 506.262 -940.279 502.495 -979.514 520.972" stroke="white" stroke-opacity="0.8" stroke-miterlimit="10"/>
<path d="M729.333 246.379C672.069 301.248 599.898 349.974 517.487 380.353C481.514 393.762 444.724 399.665 407.691 409.297C364.903 420.428 320.729 424.505 276.08 426.047C245.532 427.111 214.725 426.927 183.91 426.807C123.135 426.567 62.1435 426.784 4.04489 426.877C-29.9244 426.931 -62.8383 427.211 -94.5185 427.655C-117.251 427.975 -140.234 428.479 -163.349 428.576C-196.233 428.716 -229.595 427.681 -264.881 427.695C-277.326 427.698 -289.933 427.868 -302.624 427.945C-356.201 428.075 -412.823 416.644 -463.196 414.249C-476.411 413.618 -489.197 413.578 -501.509 414.449C-550.382 417.895 -598.899 431.141 -643.521 452.422C-651.182 456.062 -658.774 459.955 -666.329 464.043C-693.271 478.63 -719.754 495.659 -746.966 512.289C-763.15 522.191 -779.337 533.465 -797.476 538.69C-808.725 541.937 -820.372 542.534 -832.926 539.811C-844.945 537.206 -855.484 532.725 -866.96 528.641C-906.453 514.587 -959.351 510.647 -999.443 528.848" stroke="white" stroke-opacity="0.8" stroke-miterlimit="10"/>
<path d="M725.862 247.856C670.39 303.359 598.997 352.396 517.141 382.802C480.522 396.404 443.144 402.093 405.575 412.196C362.305 423.831 317.566 428.475 272.318 430.42C241.351 431.761 210.108 431.775 178.856 431.701C117.227 431.558 55.378 431.281 -3.53682 430.303C-37.9807 429.733 -71.3577 429.196 -103.493 428.685C-126.598 428.318 -149.903 428.051 -173.304 427.371C-206.635 426.4 -240.381 424.211 -276.203 423.53C-288.814 423.29 -301.604 423.273 -314.481 423.227C-368.927 422.833 -426.441 412.61 -477.593 411.686C-490.982 411.442 -503.939 411.802 -516.425 413.057C-565.826 418.018 -614.51 432.812 -659.067 455.487C-666.717 459.364 -674.294 463.495 -681.834 467.812C-708.731 483.217 -735.195 500.974 -762.619 518.01C-778.936 528.16 -795.355 539.487 -813.774 544.879C-825.205 548.232 -837.034 548.963 -849.737 546.521C-861.999 544.162 -872.871 539.991 -884.64 536.137C-925.12 522.888 -978.412 518.778 -1019.36 536.701" stroke="white" stroke-opacity="0.8" stroke-miterlimit="10"/>
<path d="M722.388 249.335C668.709 305.475 598.162 354.962 516.788 385.251C479.554 399.111 441.561 404.523 403.453 415.096C359.701 427.234 314.396 432.446 268.548 434.791C237.164 436.406 205.487 436.62 173.796 436.596C111.309 436.546 48.6013 435.782 -11.1297 433.734C-46.0519 432.536 -79.8921 431.185 -112.48 429.72C-135.96 428.662 -159.584 427.631 -183.273 426.167C-217.053 424.081 -251.185 420.745 -287.538 419.367C-300.321 418.883 -313.285 418.683 -326.348 418.509C-381.66 417.592 -440.07 408.577 -492 409.124C-505.568 409.267 -518.692 410.028 -531.352 411.666C-581.285 418.136 -630.132 434.484 -674.629 458.557C-682.263 462.671 -689.825 467.039 -697.353 471.586C-724.204 487.809 -750.65 506.296 -778.287 523.739C-794.736 534.133 -811.383 545.513 -830.087 551.075C-841.7 554.535 -853.715 555.403 -866.562 553.237C-879.071 551.129 -890.27 547.262 -902.338 543.638C-943.805 531.19 -997.489 526.912 -1039.29 544.556" stroke="white" stroke-opacity="0.8" stroke-miterlimit="10"/>
<path d="M718.919 250.816C667.027 307.59 597.331 357.535 516.443 387.703C478.594 401.82 439.982 406.955 401.339 418.002C357.104 430.644 311.234 436.423 264.786 439.169C232.984 441.061 200.875 441.471 168.747 441.495C105.406 441.541 41.8366 440.283 -18.7107 437.167C-54.1074 435.345 -88.4107 433.177 -121.454 430.758C-145.306 429.013 -169.253 427.211 -193.231 424.965C-227.454 421.762 -261.978 417.282 -298.859 415.206C-311.808 414.479 -324.955 414.092 -338.2 413.795C-394.381 412.353 -453.683 404.539 -506.391 406.565C-520.134 407.092 -533.429 408.253 -546.264 410.282C-596.724 418.256 -645.742 436.163 -690.174 461.634C-697.797 465.988 -705.344 470.592 -712.857 475.367C-739.663 492.406 -766.085 511.621 -793.938 529.475C-810.521 540.115 -827.395 551.549 -846.384 557.278C-858.18 560.845 -870.381 561.852 -883.376 559.961C-896.127 558.102 -907.661 554.542 -920.025 551.149C-962.479 539.501 -1016.56 535.054 -1059.21 552.423" stroke="white" stroke-opacity="0.8" stroke-miterlimit="10"/>
<path d="M715.445 252.294C665.345 309.702 596.564 360.243 516.09 390.152C477.656 404.596 438.395 409.383 399.217 420.901C354.5 434.047 308.067 440.393 261.016 443.539C228.801 445.705 196.255 446.312 163.686 446.389C99.4872 446.532 35.0602 444.78 -26.2994 440.593C-62.1745 438.144 -96.9374 435.158 -130.44 431.788C-154.664 429.349 -178.934 426.783 -203.196 423.76C-237.868 419.443 -272.778 413.814 -310.191 411.042C-323.307 410.071 -336.636 409.497 -350.067 409.076C-407.114 407.111 -467.312 400.498 -520.798 404.005C-534.716 404.919 -548.185 406.477 -561.187 408.893C-612.179 418.369 -661.36 437.837 -705.731 464.703C-713.339 469.294 -720.875 474.135 -728.376 479.14C-755.137 496.997 -781.54 516.939 -809.606 535.2C-826.321 546.087 -843.427 557.574 -862.693 563.47C-874.667 567.14 -887.058 568.291 -900.197 566.67C-913.192 565.065 -925.051 561.785 -937.72 558.645C-981.138 547.722 -1035.63 543.184 -1079.14 560.274" stroke="white" stroke-opacity="0.8" stroke-miterlimit="10"/>
<path d="M711.972 253.772C663.664 311.818 595.729 362.813 515.741 392.605C476.696 407.305 436.816 411.816 397.099 423.808C351.9 437.454 304.901 444.367 257.25 447.921C224.617 450.363 191.635 451.167 158.63 451.29C93.5765 451.531 28.2877 449.289 -33.8882 444.03C-70.2378 440.957 -105.464 437.15 -139.422 432.83C-164.018 429.7 -188.607 426.363 -213.161 422.563C-248.277 417.128 -283.579 410.355 -321.519 406.885C-334.802 405.67 -348.309 404.91 -361.927 404.366C-419.843 401.877 -480.937 396.458 -535.194 401.45C-549.289 402.748 -562.926 404.703 -576.103 407.509C-627.63 418.483 -676.971 439.516 -721.281 467.779C-728.877 472.611 -736.394 477.686 -743.884 482.917C-770.599 501.592 -796.979 522.261 -825.262 540.932C-842.11 552.066 -859.444 563.604 -878.995 569.67C-891.15 573.447 -903.728 574.741 -917.011 573.39C-930.249 572.042 -942.442 569.059 -955.407 566.15C-999.812 556.027 -1054.7 551.322 -1099.06 568.135" stroke="white" stroke-opacity="0.8" stroke-miterlimit="10"/>
<path d="M708.501 255.254C661.985 313.933 594.897 365.382 515.395 395.057C475.735 410.018 435.236 414.245 394.984 426.71C349.303 440.857 301.739 448.341 253.488 452.295C220.437 455.011 187.022 456.015 153.58 456.188C87.669 456.525 21.5222 453.789 -41.466 447.463C-78.294 443.763 -113.975 439.136 -148.393 433.867C-173.361 430.044 -198.272 425.943 -223.112 421.362C-258.675 414.806 -294.364 406.895 -332.836 402.728C-346.29 401.269 -359.976 400.322 -373.779 399.655C-432.565 396.642 -494.555 392.418 -549.586 398.894C-563.856 400.572 -577.667 402.928 -591.015 406.124C-643.078 418.589 -692.578 441.194 -736.824 470.852C-744.409 475.921 -751.91 481.232 -759.385 486.694C-786.054 506.186 -812.416 527.586 -840.907 546.661C-857.888 558.042 -875.453 569.633 -895.285 575.866C-907.623 579.749 -920.382 581.191 -933.817 580.106C-947.298 579.019 -959.826 576.333 -973.086 573.653C-1018.48 564.328 -1073.76 559.457 -1118.97 575.996" stroke="white" stroke-opacity="0.8" stroke-miterlimit="10"/>
<path d="M705.027 256.732C660.303 316.046 594.061 367.948 515.041 397.506C474.766 412.724 433.645 416.671 392.857 429.614C346.694 444.261 298.565 452.315 249.714 456.669C216.246 459.662 182.398 460.863 148.516 461.084C81.7504 461.517 14.7419 458.291 -49.0626 450.891C-86.3651 446.566 -122.51 441.115 -157.383 434.899C-182.719 430.381 -207.957 425.513 -233.085 420.158C-269.093 412.484 -305.173 403.432 -344.172 398.564C-357.793 396.862 -371.661 395.728 -385.647 394.937C-445.298 391.401 -508.187 388.371 -563.993 396.335C-578.442 398.397 -592.42 401.15 -605.942 404.737C-658.544 418.693 -708.203 442.87 -752.385 473.926C-759.955 479.234 -767.445 484.783 -774.904 490.472C-801.528 510.784 -827.87 532.909 -856.574 552.394C-873.688 564.021 -891.481 575.666 -911.598 582.069C-924.118 586.059 -937.064 587.647 -950.643 586.83C-964.37 586.002 -977.228 583.61 -990.785 581.164C-1037.17 572.64 -1092.84 567.602 -1138.91 583.86" stroke="white" stroke-opacity="0.8" stroke-miterlimit="10"/>
<path d="M701.558 258.209C658.622 318.159 593.227 370.516 514.696 399.954C473.806 415.432 432.066 419.095 390.743 432.512C344.094 447.659 295.403 456.284 245.952 461.039C212.066 464.305 177.786 465.706 143.467 465.977C75.8437 466.507 7.97719 462.787 -56.6397 454.319C-94.4205 449.368 -131.021 443.095 -166.353 435.931C-192.061 430.72 -217.618 425.084 -243.038 418.952C-279.49 410.157 -315.961 399.967 -355.492 394.399C-369.284 392.457 -383.327 391.132 -397.502 390.218C-458.023 386.157 -521.812 384.319 -578.389 393.771C-593.012 396.214 -607.164 399.367 -620.854 403.347C-673.998 418.795 -723.81 444.543 -767.93 476.994C-775.489 482.539 -782.96 488.325 -790.412 494.244C-816.994 515.374 -843.31 538.225 -872.23 558.121C-889.473 569.996 -907.501 581.69 -927.899 588.263C-940.601 592.36 -953.733 594.099 -967.456 593.541C-981.427 592.978 -994.619 590.879 -1008.47 588.66C-1055.85 580.936 -1111.9 575.731 -1158.83 591.713" stroke="white" stroke-opacity="0.8" stroke-miterlimit="10"/>
<path d="M698.084 259.691C656.94 320.276 592.391 373.086 514.343 402.411C472.838 418.146 430.479 421.525 388.621 435.422C341.49 451.067 292.233 460.266 242.182 465.424C207.883 468.967 173.162 470.565 138.407 470.882C69.9289 471.51 1.20061 467.296 -64.2325 457.76C-102.488 452.185 -139.547 445.084 -175.343 436.977C-201.419 431.071 -227.299 424.668 -253.007 417.758C-289.9 407.842 -326.77 396.515 -366.828 390.246C-380.787 388.06 -395.012 386.549 -409.37 385.511C-470.756 380.927 -535.449 380.276 -592.796 391.22C-607.597 394.046 -621.925 397.596 -635.781 401.967C-689.469 418.9 -739.432 446.226 -783.492 480.074C-791.039 485.86 -798.495 491.879 -805.932 498.028C-832.468 519.976 -858.765 543.555 -887.898 563.858C-905.273 575.979 -923.53 587.727 -944.212 594.467C-957.093 598.667 -970.41 600.559 -984.286 600.265C-998.495 599.965 -1012.03 598.157 -1026.17 596.172C-1074.54 589.248 -1130.98 583.877 -1178.76 599.578" stroke="white" stroke-opacity="0.8" stroke-miterlimit="10"/>
<path d="M694.611 261.17C655.259 322.388 591.556 375.656 513.994 404.86C471.878 420.855 428.896 423.952 386.503 438.322C338.886 454.464 289.071 464.236 238.417 469.795C203.7 473.612 168.546 475.407 133.35 475.777C64.0146 476.501 -5.56784 471.797 -71.8171 461.187C-110.551 454.984 -148.066 447.06 -184.321 438.008C-210.766 431.405 -236.972 424.238 -262.969 416.554C-300.305 405.517 -337.566 393.055 -378.152 386.082C-392.282 383.656 -406.685 381.958 -421.229 380.797C-483.485 375.689 -549.077 376.223 -607.191 388.661C-622.171 391.868 -636.669 395.815 -650.697 400.579C-704.931 418.997 -755.042 447.901 -799.037 483.148C-806.569 489.17 -814.013 495.426 -821.435 501.806C-847.926 524.571 -874.204 548.877 -903.549 569.59C-921.058 581.959 -939.546 593.76 -960.509 600.666C-973.572 604.974 -987.072 607.019 -1001.1 606.986C-1015.55 606.952 -1029.41 605.434 -1043.85 603.676C-1093.21 597.553 -1150.05 592.011 -1198.68 607.439" stroke="white" stroke-opacity="0.8" stroke-miterlimit="10"/>
<path d="M691.141 262.647C653.58 324.503 590.725 378.221 513.645 407.308C470.914 423.561 427.279 426.3 384.385 441.221C336.247 457.78 285.905 468.203 234.651 474.165C199.516 478.259 163.929 480.251 128.297 480.668C58.1075 481.489 -12.3367 476.291 -79.4022 464.613C-118.61 457.786 -156.581 449.035 -193.299 439.039C-220.112 431.738 -246.641 423.807 -272.926 415.346C-310.703 403.188 -348.378 389.662 -389.477 381.914C-403.781 379.268 -418.355 377.36 -433.085 376.075C-496.206 370.443 -562.706 372.165 -621.586 386.098C-636.745 389.685 -651.414 394.032 -665.612 399.187C-720.393 419.09 -770.656 449.572 -814.587 486.213C-822.107 492.473 -829.533 498.969 -836.947 505.575C-863.392 529.158 -889.647 554.195 -919.209 575.315C-936.85 587.93 -955.566 599.781 -976.814 606.858C-990.059 611.272 -1003.74 613.471 -1017.91 613.698C-1032.61 613.932 -1046.81 612.704 -1061.54 611.176C-1111.89 605.854 -1169.12 600.145 -1218.6 615.296" stroke="white" stroke-opacity="0.8" stroke-miterlimit="10"/>
<path d="M687.668 264.129C651.895 326.618 589.89 380.79 513.296 409.761C469.949 426.273 425.696 428.736 382.266 444.127C333.647 461.19 282.739 472.18 230.885 478.543C195.333 482.91 159.313 485.103 123.241 485.57C52.193 486.487 -19.1092 480.798 -86.9871 468.05C-126.674 460.596 -165.096 451.02 -202.277 440.08C-229.459 432.082 -256.291 423.344 -282.888 414.148C-321.079 400.809 -359.178 386.198 -400.801 377.757C-415.272 374.868 -430.029 372.772 -444.944 371.364C-508.935 365.208 -576.338 368.115 -635.986 383.543C-651.323 387.51 -666.166 392.254 -680.528 397.806C-735.859 419.19 -786.266 451.254 -830.136 489.293C-837.645 495.793 -845.056 502.522 -852.455 509.359C-878.854 533.759 -905.091 559.523 -934.865 581.051C-952.639 593.913 -971.583 605.817 -993.115 613.061C-1006.54 617.582 -1020.41 619.934 -1034.73 620.418C-1049.67 620.922 -1064.2 619.977 -1079.23 618.683C-1130.56 614.162 -1188.19 608.283 -1238.53 623.157" stroke="white" stroke-opacity="0.8" stroke-miterlimit="10"/>
<path d="M684.198 265.607C650.217 328.731 589.059 383.359 512.951 412.214C468.989 428.983 424.117 431.168 380.152 447.03C331.051 464.6 279.577 476.154 227.123 482.921C191.157 487.565 154.697 489.954 118.188 490.468C46.2823 491.482 -25.8778 485.3 -94.5719 471.483C-134.733 463.406 -173.611 452.999 -211.259 441.118C-238.805 432.423 -265.964 422.924 -292.853 412.951C-331.488 398.494 -369.979 382.739 -412.133 373.6C-426.775 370.467 -441.71 368.185 -456.808 366.654C-521.664 359.974 -589.978 364.061 -650.389 380.987C-665.904 385.335 -680.922 390.476 -695.451 396.422C-751.336 419.287 -801.884 452.932 -845.693 492.366C-853.187 499.103 -860.586 506.07 -867.97 513.136C-894.324 538.354 -920.541 564.845 -950.525 586.783C-968.432 599.892 -987.607 611.85 -1009.42 619.261C-1023.03 623.888 -1037.08 626.397 -1051.55 627.138C-1066.72 627.915 -1081.6 627.255 -1096.93 626.187C-1149.25 622.467 -1207.26 616.421 -1258.45 631.018" stroke="white" stroke-opacity="0.8" stroke-miterlimit="10"/>
<path d="M680.724 267.085C648.536 330.846 588.224 385.925 512.598 414.662C468.021 431.692 422.53 433.597 378.03 449.932C328.446 468.006 276.407 480.128 223.353 487.294C186.97 492.216 150.077 494.802 113.132 495.366C40.3716 496.477 -32.6504 489.8 -102.157 474.913C-142.796 466.208 -182.126 454.977 -220.237 442.152C-248.151 432.759 -275.633 422.503 -302.81 411.746C-341.886 396.174 -380.775 379.272 -423.453 369.439C-438.263 366.062 -453.379 363.593 -468.663 361.939C-534.389 354.735 -603.61 360.007 -664.78 378.428C-680.478 383.155 -695.667 388.694 -710.363 395.033C-766.802 419.377 -817.49 454.607 -861.239 495.439C-868.722 502.416 -876.102 509.616 -883.474 516.913C-909.782 542.951 -935.977 570.167 -966.176 592.515C-984.216 605.871 -1003.62 617.879 -1025.72 625.459C-1039.51 630.19 -1053.73 632.863 -1068.36 633.857C-1083.77 634.905 -1098.98 634.528 -1114.61 633.694C-1167.92 630.774 -1226.32 624.562 -1278.37 638.879" stroke="white" stroke-opacity="0.8" stroke-miterlimit="10"/>
<path d="M677.251 268.566C646.854 332.961 587.388 388.497 512.248 417.114C467.057 434.401 420.947 436.029 375.912 452.835C325.846 471.413 273.24 484.101 219.584 491.669C182.782 496.864 145.457 499.65 108.071 500.263C34.4529 501.468 -39.4269 494.304 -109.75 478.346C-150.864 469.017 -190.622 456.902 -229.223 443.193C-257.483 433.063 -285.31 422.086 -312.78 410.548C-352.299 393.862 -391.58 375.808 -434.789 365.282C-449.769 361.662 -465.061 359.006 -480.531 357.227C-547.122 349.5 -617.296 355.856 -679.188 375.875C-695.075 380.957 -710.427 386.919 -725.29 393.652C-782.288 419.477 -833.116 456.288 -876.796 498.515C-884.268 505.729 -891.632 513.169 -898.993 520.693C-925.256 547.548 -951.432 575.492 -981.844 598.247C-1000.02 611.846 -1019.65 623.911 -1042.03 631.658C-1056 636.496 -1070.41 639.326 -1085.19 640.577C-1100.84 641.902 -1116.39 641.805 -1132.31 641.201C-1186.61 639.082 -1245.4 632.699 -1298.31 646.743" stroke="white" stroke-opacity="0.8" stroke-miterlimit="10"/>
<path d="M673.781 270.045C645.172 335.073 586.554 391.063 511.899 419.564C466.097 437.111 419.364 438.462 373.794 455.738C323.246 474.82 270.075 488.072 215.818 496.043C178.599 501.515 140.841 504.498 103.015 505.159C28.5425 506.46 -46.1992 498.803 -117.338 481.776C-158.927 471.82 -199.141 458.891 -238.205 444.227C-266.833 433.407 -294.982 421.663 -322.741 409.348C-362.701 391.547 -402.38 372.346 -446.117 361.122C-461.264 357.255 -476.738 354.415 -492.39 352.513C-559.85 344.262 -630.929 351.819 -693.587 373.317C-709.653 378.785 -725.195 385.114 -740.205 392.265C-797.825 419.467 -848.726 457.964 -892.346 501.589C-899.802 509.042 -907.155 516.716 -914.501 524.467C-940.718 552.14 -966.871 580.814 -997.5 603.976C-1015.81 617.823 -1035.67 629.941 -1058.33 637.855C-1072.48 642.8 -1087.07 645.789 -1102 647.291C-1117.88 648.889 -1133.78 649.072 -1149.99 648.699C-1205.28 647.381 -1264.47 640.831 -1318.23 654.598" stroke="white" stroke-opacity="0.8" stroke-miterlimit="10"/>
<path d="M670.307 271.523C643.49 337.189 585.717 393.63 511.549 422.013C465.132 439.817 417.78 440.891 371.67 458.638C320.64 478.227 266.908 492.043 212.047 500.415C174.414 506.16 136.216 509.34 97.9569 510.054C22.6269 511.452 -52.9727 503.301 -124.924 485.203C-166.991 474.623 -207.661 460.877 -247.184 445.259C-276.18 433.751 -304.656 421.239 -332.703 408.14C-373.107 389.225 -413.177 368.876 -457.442 356.955C-472.76 352.844 -488.412 349.818 -504.251 347.793C-572.577 339.018 -644.562 347.779 -707.987 370.751C-724.231 376.603 -739.948 383.333 -755.126 390.874C-813.289 419.588 -864.341 459.632 -907.9 504.655C-915.345 512.346 -922.679 520.257 -930.014 528.238C-956.185 556.728 -982.319 586.129 -1013.16 609.702C-1031.6 623.795 -1051.69 635.963 -1074.64 644.048C-1088.97 649.099 -1103.73 652.249 -1118.82 654.004C-1134.94 655.879 -1151.17 656.343 -1167.68 656.199C-1223.96 655.679 -1283.54 648.966 -1338.15 662.452" stroke="white" stroke-opacity="0.8" stroke-miterlimit="10"/>
<path d="M666.837 273.004C641.811 339.304 584.886 396.201 511.2 424.468C464.167 442.532 416.197 443.326 369.552 461.543C318.04 481.636 263.741 496.019 208.281 504.794C170.231 510.817 131.6 514.193 92.9001 514.954C16.7158 516.449 -59.7417 507.807 -132.513 488.639C-175.054 477.432 -216.184 462.871 -256.17 446.299C-285.534 434.101 -314.333 420.821 -342.673 406.941C-383.517 386.912 -423.986 365.412 -468.778 352.797C-484.263 348.442 -500.094 345.233 -516.118 343.081C-585.313 333.782 -658.202 343.748 -722.394 368.198C-738.817 374.437 -754.704 381.567 -770.053 389.491C-828.763 419.717 -879.963 461.313 -923.461 507.734C-930.895 515.661 -938.214 523.809 -945.533 532.02C-971.659 561.328 -997.774 591.457 -1028.83 615.436C-1047.4 629.777 -1067.72 641.998 -1090.95 650.25C-1105.47 655.408 -1120.4 658.744 -1135.65 660.726C-1152 662.905 -1168.58 663.619 -1185.39 663.709C-1242.65 663.989 -1302.62 657.109 -1358.09 670.319" stroke="white" stroke-opacity="0.8" stroke-miterlimit="10"/>
<path d="M663.363 274.482C640.13 341.416 584.051 398.767 510.851 426.917C463.203 445.238 414.618 445.755 367.434 464.446C315.44 485.043 260.576 499.994 204.516 509.169C90.3267 527.86 -29.1317 522.588 -140.098 492.069C-214.741 471.54 -285.052 440.344 -352.63 405.737C-393.918 384.594 -434.778 361.946 -480.098 348.633C-563.416 324.16 -656.797 333.715 -736.785 365.636C-816.773 397.556 -884.196 450.463 -939.003 510.804C-988.742 565.559 -1033.42 630.007 -1107.24 656.446C-1191.68 686.681 -1289.79 657.917 -1378 678.173" stroke="white" stroke-opacity="0.8" stroke-miterlimit="10"/>
</g>
<rect width="414" height="920" fill="url(#paint0_radial_1153_253)"/>
<defs>
<radialGradient id="paint0_radial_1153_253" cx="0" cy="0" r="1" gradientUnits="userSpaceOnUse" gradientTransform="translate(207 460) rotate(90) scale(501 225.45)">
<stop offset="0.550189" stop-opacity="0.86"/>
<stop offset="0.862689" stop-opacity="0.98"/>
</radialGradient>
<clipPath id="clip0_1153_253">
<rect width="414" height="469" fill="white" transform="translate(0 209)"/>
</clipPath>
</defs>
</svg>
