<svg width="414" height="920" viewBox="0 0 414 920" fill="none" xmlns="http://www.w3.org/2000/svg">
<rect width="414" height="920" fill="black"/>
<g clip-path="url(#clip0_78_251)">
<path d="M771 244.625C692.246 291.873 609.912 335.151 521.682 366.938C493.077 377.244 463.682 386.373 433.118 390.457C370.794 398.785 307.593 385.779 244.582 384.034C164.556 381.815 84.0818 398.494 13.2504 431.212C-40.0459 455.832 -100.008 491.543 -160.298 500.505C-215.067 508.646 -273.985 464.35 -322.487 447.067C-372.165 429.367 -427.728 425.597 -480.193 434.702C-507.678 439.473 -534.412 447.774 -559.061 459.499C-582.633 470.713 -603.167 491.583 -631.111 475.181C-640.348 469.759 -646.733 461.404 -654.671 454.574C-682.259 430.842 -730.502 428.987 -760.341 450.514" stroke="white" stroke-opacity="0.8" stroke-miterlimit="10"/>
<path d="M767.526 246.107C690.564 293.989 609.076 337.721 521.332 369.391C492.116 379.954 462.098 388.806 430.999 393.364C393.472 398.819 355.555 396.797 317.516 393.921C291.549 391.959 265.526 389.597 239.529 388.936C188.172 387.635 136.634 393.267 87.498 405.128C58.7675 412.065 30.8647 421.137 4.27162 432.254C-14.41 440.025 -33.8356 449.027 -53.7586 457.792C-81.7791 470.083 -110.794 481.895 -140.276 489.458C-150.86 492.184 -161.501 494.363 -172.154 495.794C-216.191 501.687 -262.84 476.733 -304.801 458.376C-316.049 453.431 -326.96 448.96 -337.403 445.684C-380.328 432.094 -427.14 428.684 -472.449 434.603C-480.251 435.621 -488.01 436.915 -495.705 438.483C-523.145 444.072 -549.856 453.101 -574.721 465.232C-589.447 472.419 -603.106 483.116 -618.132 486.496C-627.384 488.578 -637.11 487.847 -647.929 481.901C-657.382 476.706 -664.128 468.679 -672.362 462.082C-700.941 439.151 -749.572 437.129 -780.269 458.379" stroke="white" stroke-opacity="0.8" stroke-miterlimit="10"/>
<path d="M764.052 247.585C688.882 296.105 608.241 340.287 520.979 371.84C491.147 382.664 460.511 391.239 428.877 396.264C390.868 402.223 352.385 400.768 313.746 398.292C287.362 396.604 260.902 394.439 234.468 393.831C182.254 392.623 129.857 397.765 79.9053 408.559C50.7003 414.868 22.342 423.126 -4.71427 433.289C-23.7641 440.372 -43.5124 448.607 -63.7277 456.588C-92.1886 467.765 -121.602 478.428 -151.612 485.298C-162.367 487.781 -173.183 489.773 -184.025 491.08C-228.928 496.449 -276.484 472.7 -319.208 455.82C-330.635 451.263 -341.727 447.219 -352.33 444.303C-395.84 432.338 -442.762 430.366 -488.01 437.68C-495.796 438.934 -503.541 440.469 -511.225 442.264C-538.623 448.67 -565.311 458.426 -590.389 470.968C-605.248 478.402 -619.138 489.152 -634.445 492.699C-643.879 494.884 -653.768 494.263 -664.755 488.625C-674.431 483.657 -681.531 475.959 -690.061 469.593C-719.626 447.462 -768.652 445.274 -800.199 466.243" stroke="white" stroke-opacity="0.8" stroke-miterlimit="10"/>
<path d="M760.583 249.062C687.2 298.215 607.406 342.855 520.634 374.288C490.187 385.368 458.932 393.666 426.762 399.165C388.272 405.631 349.223 404.74 309.984 402.665C283.183 401.254 256.29 399.285 229.415 398.724C176.347 397.613 123.089 402.261 72.3245 411.984C42.6412 417.669 13.8576 425.176 -13.6921 434.318C-33.0912 440.758 -53.1851 448.178 -73.6852 455.378C-102.59 465.441 -132.395 474.957 -162.932 481.13C-173.854 483.368 -184.852 485.173 -195.877 486.361C-241.649 491.206 -290.154 468.761 -333.599 453.256C-345.216 449.109 -356.472 445.452 -367.242 442.91C-411.306 432.507 -458.372 432.036 -503.552 440.748C-511.327 442.243 -519.056 444.011 -526.725 446.036C-554.077 453.26 -580.742 463.743 -606.033 476.695C-621.025 484.376 -635.143 495.18 -650.735 498.893C-660.351 501.185 -670.403 500.678 -681.561 495.336C-691.461 490.599 -698.914 483.225 -707.74 477.089C-738.296 455.759 -787.709 453.4 -820.114 474.096" stroke="white" stroke-opacity="0.8" stroke-miterlimit="10"/>
<path d="M757.11 250.544C685.519 300.331 606.571 345.424 520.285 376.744C489.223 388.085 457.365 396.159 424.644 402.071C385.687 409.108 346.061 408.718 306.219 407.046C279.003 405.908 251.674 404.14 224.363 403.63C170.436 402.615 116.32 406.773 64.7398 415.424C34.5819 420.482 5.34281 427.195 -22.6701 435.363C-42.4375 441.129 -62.854 447.765 -83.6464 454.188C-112.992 463.136 -143.195 471.504 -174.26 476.979C-185.353 478.975 -196.529 480.593 -207.736 481.657C-254.374 485.978 -303.794 464.768 -347.998 450.708C-359.797 446.954 -371.22 443.701 -382.157 441.532C-426.768 432.691 -473.982 433.722 -519.101 443.828C-526.865 445.559 -534.579 447.565 -542.232 449.82C-569.539 457.861 -596.185 469.072 -621.689 482.431C-636.813 490.359 -651.159 501.212 -667.036 505.096C-676.834 507.495 -687.054 507.101 -698.374 502.06C-708.503 497.552 -716.304 490.506 -725.427 484.6C-756.974 464.07 -806.778 461.545 -840.033 481.961" stroke="white" stroke-opacity="0.8" stroke-miterlimit="10"/>
<path d="M753.64 252.022C683.841 302.447 605.74 347.993 519.935 379.193C488.259 390.791 455.786 398.601 422.526 404.971C383.09 412.525 342.895 412.688 302.453 411.417C274.82 410.556 247.057 408.985 219.306 408.521C164.526 407.603 109.551 411.267 57.1547 418.851C26.5185 423.285 -3.17233 429.197 -31.6484 436.394C-51.7802 441.482 -72.5081 447.385 -93.6079 452.98C-123.375 460.877 -154.003 467.967 -185.585 472.812C-196.852 474.54 -208.199 475.995 -219.596 476.936C-267.103 480.733 -317.43 460.754 -362.398 448.145C-374.375 444.785 -385.973 441.936 -397.077 440.141C-442.23 432.851 -489.596 435.393 -534.655 446.897C-542.403 448.869 -550.102 451.108 -557.748 453.594C-585.009 462.455 -611.636 474.394 -637.352 488.16C-652.61 496.334 -667.188 507.241 -683.345 511.292C-693.325 513.798 -703.712 513.517 -715.196 508.776C-725.552 504.499 -733.703 497.779 -743.121 492.104C-775.656 472.375 -825.85 469.682 -859.964 489.822" stroke="white" stroke-opacity="0.8" stroke-miterlimit="10"/>
<path d="M750.166 253.503C682.159 304.562 604.904 350.562 519.586 381.645C487.298 393.503 454.206 401.043 420.407 407.876C380.493 415.947 339.728 416.661 298.686 415.794C270.635 415.207 242.436 413.835 214.253 413.422C158.614 412.601 102.782 415.774 49.569 422.284C18.4583 426.09 -11.692 431.205 -40.6274 437.431C-61.1274 441.842 -82.1779 446.97 -103.566 451.778C-133.777 458.571 -164.801 464.494 -196.91 468.651C-208.344 470.132 -219.874 471.407 -231.452 472.221C-279.825 475.494 -331.06 456.746 -376.794 445.586C-388.95 442.62 -400.714 440.171 -411.993 438.756C-457.685 433.017 -505.208 437.071 -550.205 449.97C-557.942 452.179 -565.626 454.654 -573.256 457.367C-600.472 467.046 -627.077 479.711 -653.009 493.888C-668.399 502.31 -683.205 513.27 -699.647 517.487C-709.806 520.1 -720.371 519.936 -732.014 515.492C-742.602 511.448 -751.098 505.049 -760.809 499.604C-794.334 480.676 -844.92 477.813 -879.884 497.679" stroke="white" stroke-opacity="0.8" stroke-miterlimit="10"/>
<path d="M746.693 254.981C680.474 306.673 604.069 353.128 519.233 384.094C486.331 396.209 452.623 403.479 418.286 410.776C377.893 419.361 336.559 420.632 294.917 420.165C266.449 419.854 237.817 418.68 209.193 418.313C152.7 417.589 96.0063 420.268 41.9811 425.71C10.3959 428.893 -20.2137 433.207 -49.6123 438.462C-70.4844 442.196 -91.8576 446.55 -113.534 450.574C-144.19 456.259 -175.604 461.017 -208.241 464.487C-219.842 465.722 -231.554 466.813 -243.319 467.503C-292.561 470.252 -344.695 452.732 -391.196 443.023C-403.53 440.447 -415.466 438.402 -426.916 437.365C-473.143 433.171 -520.829 438.742 -565.762 453.039C-573.487 455.485 -581.156 458.201 -588.771 461.14C-615.941 471.637 -642.527 485.03 -668.672 499.614C-684.195 508.282 -699.232 519.296 -715.955 523.68C-726.296 526.396 -737.036 526.356 -748.835 522.202C-759.658 518.392 -768.496 512.316 -778.503 507.101C-813.015 488.97 -863.992 485.944 -899.813 505.529" stroke="white" stroke-opacity="0.8" stroke-miterlimit="10"/>
<path d="M743.222 256.459C678.795 308.789 603.237 355.697 518.887 386.546C485.37 398.921 451.047 405.918 416.171 413.682C375.3 422.777 333.396 424.609 291.155 424.546C262.272 424.509 233.204 423.535 204.139 423.218C146.789 422.59 89.2368 424.776 34.3954 429.15C2.33185 431.706 -28.7372 435.216 -58.5913 439.506C-79.8354 442.559 -101.527 446.143 -123.493 449.379C-154.592 453.96 -186.398 457.554 -219.566 460.333C-231.338 461.321 -243.224 462.228 -255.175 462.795C-305.283 465.021 -358.317 448.725 -405.592 440.471C-418.105 438.285 -430.208 436.644 -441.828 435.983C-488.591 433.327 -536.436 440.424 -581.304 456.119C-589.015 458.805 -596.668 461.754 -604.276 464.924C-631.4 476.238 -657.967 490.358 -684.325 505.352C-699.98 514.268 -715.245 525.331 -732.253 529.886C-742.776 532.708 -753.694 532.792 -765.645 528.928C-776.704 525.355 -785.883 519.596 -796.186 514.615C-831.689 497.285 -883.057 494.092 -919.729 513.4" stroke="white" stroke-opacity="0.8" stroke-miterlimit="10"/>
<path d="M739.749 257.94C677.114 310.904 602.403 358.266 518.535 388.998C484.402 401.63 449.465 408.357 414.045 416.585C372.696 426.19 330.223 428.583 287.382 428.92C258.082 429.16 228.577 428.379 199.08 428.112C140.875 427.582 82.4612 429.277 26.8074 432.577C-5.73073 434.508 -37.2591 437.214 -67.5726 440.541C-89.1887 442.913 -111.203 445.726 -133.457 448.175C-165.001 451.648 -197.197 454.08 -230.897 456.169C-242.836 456.91 -254.905 457.634 -267.042 458.077C-318.018 459.779 -371.953 444.705 -419.999 437.912C-432.686 436.117 -444.963 434.875 -456.754 434.595C-504.045 433.474 -552.057 442.099 -596.865 459.189C-604.563 462.111 -612.202 465.298 -619.794 468.698C-646.873 480.829 -673.417 495.68 -699.991 511.081C-715.776 520.243 -731.276 531.361 -748.565 536.082C-759.27 539.011 -770.367 539.218 -782.473 535.645C-793.771 532.308 -803.289 526.87 -813.888 522.115C-850.378 505.586 -902.141 502.223 -939.667 521.254" stroke="white" stroke-opacity="0.8" stroke-miterlimit="10"/>
<path d="M736.279 259.418C675.435 313.016 601.571 360.835 518.189 391.447C483.441 404.34 447.889 410.792 411.93 419.487C370.099 429.604 327.064 432.556 283.615 433.294C253.898 433.808 223.96 433.227 194.022 433.01C134.959 432.576 75.6877 433.778 19.2177 436.01C-13.7988 437.314 -45.7864 439.213 -76.5555 441.578C-98.5437 443.267 -120.881 445.312 -143.424 446.977C-175.415 449.339 -207.999 450.614 -242.226 452.015C-254.333 452.509 -266.583 453.049 -278.902 453.37C-330.745 454.547 -385.575 440.691 -434.399 435.359C-447.265 433.954 -459.709 433.114 -471.675 433.214C-519.493 433.621 -567.672 443.78 -612.419 462.268C-620.106 465.431 -627.729 468.851 -635.307 472.481C-662.34 485.43 -688.865 501.008 -715.648 516.817C-731.566 526.226 -747.294 537.396 -764.867 542.284C-775.755 545.32 -787.03 545.654 -799.288 542.368C-810.825 539.271 -820.692 534.166 -831.576 529.625C-869.095 513.967 -921.206 510.367 -959.591 529.122" stroke="white" stroke-opacity="0.8" stroke-miterlimit="10"/>
<path d="M732.805 260.896C673.75 315.131 600.732 363.401 517.84 393.896C482.477 407.046 446.306 413.225 409.812 422.387C367.502 433.01 323.898 436.527 279.849 437.665C249.714 438.455 219.344 438.072 188.966 437.902C129.049 437.565 68.9153 438.272 11.6329 439.436C-21.8581 440.117 -54.3128 441.205 -85.5336 442.609C-107.894 443.614 -130.554 444.888 -153.381 445.769C-185.817 447.02 -218.791 447.14 -253.55 447.848C-265.828 448.098 -278.253 448.452 -290.762 448.648C-343.473 449.302 -399.199 436.66 -448.798 432.793C-461.838 431.776 -474.453 431.335 -486.594 431.822C-534.94 433.751 -583.29 445.452 -627.972 465.334C-635.644 468.734 -643.252 472.394 -650.818 476.251C-677.806 490.018 -704.312 506.323 -731.308 522.542C-747.358 532.198 -763.318 543.419 -781.172 548.477C-792.238 551.62 -803.699 552.084 -816.106 549.077C-827.886 546.225 -838.086 541.433 -849.266 537.119C-887.772 522.262 -940.279 518.495 -979.514 536.972" stroke="white" stroke-opacity="0.8" stroke-miterlimit="10"/>
<path d="M729.333 262.378C672.069 317.247 599.898 365.974 517.487 396.353C481.514 409.762 444.724 415.664 407.691 425.297C364.903 436.427 320.729 440.505 276.08 442.046C245.532 443.11 214.725 442.927 183.91 442.807C123.135 442.567 62.1435 442.783 4.04489 442.877C-29.9244 442.93 -62.8383 443.21 -94.5185 443.654C-117.251 443.975 -140.234 444.478 -163.349 444.575C-196.233 444.715 -229.595 443.681 -264.881 443.694C-277.326 443.698 -289.933 443.868 -302.624 443.945C-356.201 444.075 -412.823 432.644 -463.196 430.248C-476.411 429.618 -489.197 429.578 -501.509 430.448C-550.382 433.895 -598.899 447.141 -643.521 468.421C-651.182 472.061 -658.774 475.955 -666.329 480.042C-693.271 494.629 -719.754 511.659 -746.966 528.288C-763.15 538.191 -779.337 549.465 -797.476 554.69C-808.725 557.936 -820.372 558.534 -832.926 555.811C-844.945 553.205 -855.484 548.724 -866.96 544.64C-906.453 530.587 -959.351 526.647 -999.443 544.847" stroke="white" stroke-opacity="0.8" stroke-miterlimit="10"/>
<path d="M725.862 263.856C670.39 319.359 598.997 368.395 517.141 398.801C480.522 412.404 443.144 418.093 405.575 428.196C362.305 439.83 317.566 444.474 272.318 446.42C241.351 447.761 210.108 447.774 178.856 447.701C117.227 447.557 55.378 447.281 -3.53682 446.303C-37.9807 445.732 -71.3577 445.195 -103.493 444.685C-126.598 444.318 -149.903 444.051 -173.304 443.37C-206.635 442.399 -240.381 440.21 -276.203 439.53C-288.814 439.29 -301.604 439.273 -314.481 439.226C-368.927 438.832 -426.441 428.609 -477.593 427.685C-490.982 427.442 -503.939 427.802 -516.425 429.056C-565.826 434.018 -614.51 448.812 -659.067 471.487C-666.717 475.364 -674.294 479.494 -681.834 483.812C-708.731 499.217 -735.195 516.973 -762.619 534.01C-778.936 544.159 -795.355 555.487 -813.774 560.879C-825.205 564.232 -837.034 564.963 -849.737 562.52C-861.999 560.161 -872.871 555.991 -884.64 552.137C-925.12 538.888 -978.412 534.777 -1019.36 552.701" stroke="white" stroke-opacity="0.8" stroke-miterlimit="10"/>
<path d="M722.388 265.334C668.709 321.475 598.162 370.962 516.788 401.25C479.554 415.11 441.561 420.522 403.453 431.096C359.701 443.234 314.396 448.445 268.548 450.791C237.164 452.406 205.487 452.619 173.796 452.596C111.309 452.546 48.6013 451.782 -11.1297 449.733C-46.0519 448.535 -79.8921 447.184 -112.48 445.719C-135.96 444.662 -159.584 443.631 -183.273 442.166C-217.053 440.081 -251.185 436.744 -287.538 435.366C-300.321 434.882 -313.285 434.682 -326.348 434.509C-381.66 433.591 -440.07 424.576 -492 425.123C-505.568 425.267 -518.692 426.027 -531.352 427.666C-581.285 434.135 -630.132 450.484 -674.629 474.557C-682.263 478.671 -689.825 483.038 -697.353 487.586C-724.204 503.808 -750.65 522.296 -778.287 539.739C-794.736 550.132 -811.383 561.513 -830.087 567.075C-841.7 570.535 -853.715 571.402 -866.562 569.237C-879.071 567.128 -890.27 563.261 -902.338 559.638C-943.805 547.189 -997.489 542.912 -1039.29 560.555" stroke="white" stroke-opacity="0.8" stroke-miterlimit="10"/>
<path d="M718.919 266.815C667.027 323.589 597.331 373.534 516.443 403.702C478.594 417.819 439.982 422.954 401.339 434.001C357.104 446.643 311.234 452.422 264.786 455.168C232.984 457.06 200.875 457.47 168.747 457.494C105.406 457.54 41.8366 456.282 -18.7107 453.166C-54.1074 451.344 -88.4107 449.176 -121.454 446.757C-145.306 445.012 -169.253 443.21 -193.231 440.965C-227.454 437.761 -261.978 433.281 -298.859 431.205C-311.808 430.478 -324.955 430.091 -338.2 429.794C-394.381 428.353 -453.683 420.538 -506.391 422.564C-520.134 423.091 -533.429 424.252 -546.264 426.281C-596.724 434.255 -645.742 452.162 -690.174 477.633C-697.797 481.987 -705.344 486.591 -712.857 491.366C-739.663 508.405 -766.085 527.62 -793.938 545.474C-810.521 556.114 -827.395 567.548 -846.384 573.277C-858.18 576.844 -870.381 577.851 -883.376 575.96C-896.127 574.101 -907.661 570.541 -920.025 567.148C-962.479 555.5 -1016.56 551.053 -1059.21 568.422" stroke="white" stroke-opacity="0.8" stroke-miterlimit="10"/>
<path d="M715.445 268.293C665.345 325.701 596.564 376.243 516.09 406.151C477.656 420.595 438.395 425.383 399.217 436.901C354.5 450.046 308.067 456.392 261.016 459.539C228.801 461.704 196.255 462.311 163.686 462.388C99.4872 462.532 35.0602 460.78 -26.2994 456.593C-62.1745 454.144 -96.9374 451.157 -130.44 447.788C-154.664 445.349 -178.934 442.783 -203.196 439.76C-237.868 435.443 -272.778 429.814 -310.191 427.041C-323.307 426.07 -336.636 425.496 -350.067 425.076C-407.114 423.111 -467.312 416.498 -520.798 420.004C-534.716 420.919 -548.185 422.477 -561.187 424.892C-612.179 434.368 -661.36 453.837 -705.731 480.702C-713.339 485.293 -720.875 490.135 -728.376 495.139C-755.137 512.996 -781.54 532.939 -809.606 551.199C-826.321 562.086 -843.427 573.574 -862.693 579.47C-874.667 583.14 -887.058 584.291 -900.197 582.669C-913.192 581.064 -925.051 577.785 -937.72 574.645C-981.138 563.721 -1035.63 559.184 -1079.14 576.273" stroke="white" stroke-opacity="0.8" stroke-miterlimit="10"/>
<path d="M711.972 269.772C663.664 327.817 595.729 378.812 515.741 408.604C476.696 423.305 436.816 427.816 397.099 439.807C351.9 453.453 304.901 460.367 257.25 463.92C224.617 466.362 191.635 467.167 158.63 467.29C93.5765 467.53 28.2877 465.288 -33.8882 460.03C-70.2378 456.957 -105.464 453.15 -139.422 448.829C-164.018 445.699 -188.607 442.363 -213.161 438.563C-248.277 433.127 -283.579 426.354 -321.519 422.884C-334.802 421.67 -348.309 420.909 -361.927 420.365C-419.843 417.876 -480.937 412.458 -535.194 417.449C-549.289 418.747 -562.926 420.702 -576.103 423.508C-627.63 434.482 -676.971 455.515 -721.281 483.779C-728.877 488.61 -736.394 493.685 -743.884 498.917C-770.599 517.591 -796.979 538.261 -825.262 556.932C-842.11 568.066 -859.444 579.603 -878.995 585.669C-891.15 589.446 -903.728 590.741 -917.011 589.389C-930.249 588.041 -942.442 585.059 -955.407 582.149C-999.812 572.026 -1054.7 567.322 -1099.06 584.134" stroke="white" stroke-opacity="0.8" stroke-miterlimit="10"/>
<path d="M708.501 271.253C661.985 329.933 594.897 381.382 515.395 411.056C475.735 426.017 435.236 430.245 394.984 442.71C349.303 456.857 301.739 464.34 253.488 468.294C220.437 471.01 187.022 472.014 153.58 472.188C87.669 472.525 21.5222 469.789 -41.466 463.463C-78.294 459.763 -113.975 455.135 -148.393 449.867C-173.361 446.043 -198.272 441.942 -223.112 437.361C-258.675 430.805 -294.364 422.894 -332.836 418.727C-346.29 417.269 -359.976 416.321 -373.779 415.654C-432.565 412.641 -494.555 408.417 -549.586 414.893C-563.856 416.572 -577.667 418.927 -591.015 422.124C-643.078 434.589 -692.578 457.194 -736.824 486.852C-744.409 491.92 -751.91 497.232 -759.385 502.694C-786.054 522.185 -812.416 543.586 -840.907 562.661C-857.888 574.041 -875.453 585.633 -895.285 591.865C-907.623 595.749 -920.382 597.19 -933.817 596.106C-947.298 595.018 -959.826 592.332 -973.086 589.653C-1018.48 580.327 -1073.76 575.456 -1118.97 591.995" stroke="white" stroke-opacity="0.8" stroke-miterlimit="10"/>
<path d="M705.027 272.731C660.303 332.045 594.061 383.947 515.041 413.505C474.766 428.723 433.645 432.67 392.857 445.613C346.694 460.26 298.565 468.314 249.714 472.668C216.246 475.661 182.398 476.862 148.516 477.083C81.7504 477.516 14.7419 474.29 -49.0626 466.89C-86.3651 462.565 -122.51 457.114 -157.383 450.898C-182.719 446.38 -207.957 441.512 -233.085 436.157C-269.093 428.483 -305.173 419.431 -344.172 414.563C-357.793 412.861 -371.661 411.727 -385.647 410.936C-445.298 407.4 -508.187 404.37 -563.993 412.334C-578.442 414.396 -592.42 417.149 -605.942 420.736C-658.544 434.692 -708.203 458.869 -752.385 489.925C-759.955 495.233 -767.445 500.782 -774.904 506.471C-801.528 526.783 -827.87 548.908 -856.574 568.393C-873.688 580.021 -891.481 591.665 -911.598 598.068C-924.118 602.058 -937.064 603.646 -950.643 602.829C-964.37 602.001 -977.228 599.609 -990.785 597.163C-1037.17 588.639 -1092.84 583.601 -1138.91 599.859" stroke="white" stroke-opacity="0.8" stroke-miterlimit="10"/>
<path d="M701.558 274.209C658.622 334.159 593.227 386.516 514.696 415.954C473.806 431.432 432.066 435.095 390.743 448.512C344.094 463.659 295.403 472.284 245.952 477.039C212.066 480.305 177.786 481.706 143.467 481.977C75.8437 482.507 7.97719 478.787 -56.6397 470.319C-94.4205 465.368 -131.021 459.095 -166.353 451.931C-192.061 446.72 -217.618 441.084 -243.038 434.952C-279.49 426.157 -315.961 415.967 -355.492 410.399C-369.284 408.457 -383.327 407.132 -397.502 406.218C-458.023 402.157 -521.812 400.319 -578.389 409.771C-593.012 412.214 -607.164 415.367 -620.854 419.347C-673.998 434.795 -723.81 460.543 -767.93 492.994C-775.489 498.539 -782.96 504.325 -790.412 510.244C-816.994 531.374 -843.31 554.225 -872.23 574.121C-889.473 585.996 -907.501 597.69 -927.899 604.263C-940.601 608.36 -953.733 610.099 -967.456 609.541C-981.427 608.978 -994.619 606.879 -1008.47 604.66C-1055.85 596.936 -1111.9 591.731 -1158.83 607.713" stroke="white" stroke-opacity="0.8" stroke-miterlimit="10"/>
<path d="M698.084 275.691C656.94 336.275 592.391 389.085 514.343 418.41C472.838 434.145 430.479 437.525 388.621 451.421C341.49 467.066 292.233 476.265 242.182 481.423C207.883 484.967 173.162 486.565 138.407 486.882C69.9289 487.509 1.20061 483.295 -64.2325 473.759C-102.488 468.184 -139.547 461.084 -175.343 452.976C-201.419 447.071 -227.299 440.668 -253.007 433.758C-289.9 423.842 -326.77 412.514 -366.828 406.245C-380.787 404.06 -395.012 402.548 -409.37 401.511C-470.756 396.926 -535.449 396.276 -592.796 407.219C-607.597 410.045 -621.925 413.595 -635.781 417.966C-689.469 434.899 -739.432 462.225 -783.492 496.074C-791.039 501.859 -798.495 507.879 -805.932 514.028C-832.468 535.975 -858.765 559.554 -887.898 579.857C-905.273 591.979 -923.53 603.726 -944.212 610.466C-957.093 614.667 -970.41 616.559 -984.286 616.265C-998.495 615.965 -1012.03 614.156 -1026.17 612.171C-1074.54 605.248 -1130.98 599.876 -1178.76 615.578" stroke="white" stroke-opacity="0.8" stroke-miterlimit="10"/>
<path d="M694.611 277.169C655.259 338.387 591.556 391.655 513.994 420.859C471.878 436.854 428.896 439.951 386.503 454.321C338.886 470.463 289.071 480.236 238.417 485.794C203.7 489.611 168.546 491.406 133.35 491.776C64.0146 492.501 -5.56784 487.796 -71.8171 477.186C-110.551 470.983 -148.066 463.059 -184.321 454.007C-210.766 447.404 -236.972 440.237 -262.969 432.553C-300.305 421.516 -337.566 409.054 -378.152 402.081C-392.282 399.656 -406.685 397.957 -421.229 396.796C-483.485 391.688 -549.077 392.222 -607.191 404.66C-622.171 407.867 -636.669 411.814 -650.697 416.578C-704.931 434.996 -755.042 463.9 -799.037 499.147C-806.569 505.169 -814.013 511.425 -821.435 517.805C-847.926 540.57 -874.204 564.876 -903.549 585.589C-921.058 597.958 -939.546 609.759 -960.509 616.665C-973.572 620.973 -987.072 623.018 -1001.1 622.985C-1015.55 622.951 -1029.41 621.433 -1043.85 619.675C-1093.21 613.552 -1150.05 608.01 -1198.68 623.438" stroke="white" stroke-opacity="0.8" stroke-miterlimit="10"/>
<path d="M691.141 278.647C653.58 340.502 590.725 394.22 513.645 423.308C470.914 439.56 427.279 442.299 384.385 457.22C336.247 473.779 285.905 484.203 234.651 490.165C199.516 494.259 163.929 496.251 128.297 496.668C58.1075 497.488 -12.3367 492.29 -79.4022 480.612C-118.61 473.786 -156.581 465.034 -193.299 455.038C-220.112 447.738 -246.641 439.807 -272.926 431.346C-310.703 419.187 -348.378 405.661 -389.477 397.914C-403.781 395.268 -418.355 393.359 -433.085 392.075C-496.206 386.443 -562.706 388.164 -621.586 402.098C-636.745 405.684 -651.414 410.032 -665.612 415.187C-720.393 435.089 -770.656 465.571 -814.587 502.213C-822.107 508.472 -829.533 514.968 -836.947 521.575C-863.392 545.157 -889.647 570.194 -919.209 591.314C-936.85 603.93 -955.566 615.781 -976.814 622.858C-990.059 627.272 -1003.74 629.471 -1017.91 629.698C-1032.61 629.931 -1046.81 628.703 -1061.54 627.175C-1111.89 621.853 -1169.12 616.145 -1218.6 631.296" stroke="white" stroke-opacity="0.8" stroke-miterlimit="10"/>
<path d="M687.668 280.128C651.895 342.618 589.89 396.789 513.296 425.76C469.949 442.273 425.696 444.735 382.266 460.126C333.647 477.189 282.739 488.18 230.885 494.542C195.333 498.91 159.313 501.102 123.241 501.569C52.193 502.487 -19.1092 496.798 -86.9871 484.049C-126.674 476.595 -165.096 467.02 -202.277 456.079C-229.459 448.082 -256.291 439.343 -282.888 430.148C-321.079 416.808 -359.178 402.198 -400.801 393.757C-415.272 390.867 -430.029 388.772 -444.944 387.364C-508.935 381.208 -576.338 384.114 -635.986 399.542C-651.323 403.509 -666.166 408.254 -680.528 413.806C-735.859 435.189 -786.266 467.253 -830.136 505.293C-837.645 511.792 -845.056 518.522 -852.455 525.358C-878.854 549.758 -905.091 575.523 -934.865 597.05C-952.639 609.912 -971.583 621.817 -993.115 629.06C-1006.54 633.581 -1020.41 635.934 -1034.73 636.417C-1049.67 636.921 -1064.2 635.977 -1079.23 634.682C-1130.56 630.161 -1188.19 624.283 -1238.53 639.157" stroke="white" stroke-opacity="0.8" stroke-miterlimit="10"/>
<path d="M684.198 281.606C650.217 344.73 589.059 399.358 512.951 428.213C468.989 444.982 424.117 447.167 380.152 463.029C331.051 480.599 279.577 492.153 227.123 498.92C191.157 503.564 154.697 505.953 118.188 506.467C46.2823 507.481 -25.8778 501.299 -94.5719 487.482C-134.733 479.405 -173.611 468.998 -211.259 457.117C-238.805 448.422 -265.964 438.923 -292.853 428.95C-331.488 414.493 -369.979 398.738 -412.133 389.599C-426.775 386.466 -441.71 384.184 -456.808 382.653C-521.664 375.973 -589.978 380.06 -650.389 396.986C-665.904 401.334 -680.922 406.475 -695.451 412.421C-751.336 435.286 -801.884 468.931 -845.693 508.366C-853.187 515.102 -860.586 522.069 -867.97 529.135C-894.324 554.353 -920.541 580.844 -950.525 602.782C-968.432 615.891 -987.607 627.849 -1009.42 635.26C-1023.03 639.887 -1037.08 642.396 -1051.55 643.137C-1066.72 643.914 -1081.6 643.254 -1096.93 642.186C-1149.25 638.466 -1207.26 632.42 -1258.45 647.017" stroke="white" stroke-opacity="0.8" stroke-miterlimit="10"/>
<path d="M680.724 283.084C648.536 346.845 588.224 401.924 512.598 430.662C468.021 447.691 422.53 449.596 378.03 465.932C328.446 484.006 276.407 496.127 223.353 503.294C186.97 508.215 150.077 510.801 113.132 511.365C40.3716 512.476 -32.6504 505.8 -102.157 490.912C-142.796 482.207 -182.126 470.977 -220.237 458.151C-248.151 448.759 -275.633 438.502 -302.81 427.745C-341.886 412.174 -380.775 395.271 -423.453 385.439C-438.263 382.062 -453.379 379.593 -468.663 377.938C-534.389 370.735 -603.61 376.006 -664.78 394.427C-680.478 399.155 -695.667 404.693 -710.363 411.033C-766.802 435.376 -817.49 470.606 -861.239 511.438C-868.722 518.415 -876.102 525.615 -883.474 532.912C-909.782 558.95 -935.977 586.166 -966.176 608.514C-984.216 621.87 -1003.62 633.878 -1025.72 641.459C-1039.51 646.19 -1053.73 648.863 -1068.36 649.857C-1083.77 650.904 -1098.98 650.527 -1114.61 649.693C-1167.92 646.774 -1226.32 640.561 -1278.37 654.878" stroke="white" stroke-opacity="0.8" stroke-miterlimit="10"/>
<path d="M677.251 284.565C646.854 348.96 587.388 404.496 512.248 433.113C467.057 450.4 420.947 452.028 375.912 468.834C325.846 487.412 273.24 500.1 219.584 507.668C182.782 512.863 145.457 515.649 108.071 516.262C34.4529 517.467 -39.4269 510.303 -109.75 494.345C-150.864 485.016 -190.622 472.901 -229.223 459.192C-257.483 449.062 -285.31 438.085 -312.78 426.547C-352.299 409.861 -391.58 391.807 -434.789 381.281C-449.769 377.661 -465.061 375.005 -480.531 373.226C-547.122 365.499 -617.296 371.855 -679.188 391.874C-695.075 396.956 -710.427 402.918 -725.29 409.651C-782.288 435.476 -833.116 472.287 -876.796 514.514C-884.268 521.728 -891.632 529.168 -898.993 536.692C-925.256 563.547 -951.432 591.491 -981.844 614.246C-1000.02 627.845 -1019.65 639.91 -1042.03 647.657C-1056 652.495 -1070.41 655.325 -1085.19 656.576C-1100.84 657.901 -1116.39 657.804 -1132.31 657.2C-1186.61 655.081 -1245.4 648.698 -1298.31 662.742" stroke="white" stroke-opacity="0.8" stroke-miterlimit="10"/>
<path d="M673.781 286.044C645.172 351.073 586.554 407.062 511.899 435.563C466.097 453.11 419.364 454.461 373.794 471.737C323.246 490.819 270.075 504.071 215.818 512.042C178.599 517.514 140.841 520.497 103.015 521.158C28.5425 522.459 -46.1992 514.802 -117.338 497.775C-158.927 487.819 -199.141 474.89 -238.205 460.226C-266.833 449.406 -294.982 437.662 -322.741 425.347C-362.701 407.546 -402.38 388.345 -446.117 377.121C-461.264 373.254 -476.738 370.414 -492.39 368.512C-559.85 360.261 -630.929 367.818 -693.587 389.316C-709.653 394.784 -725.195 401.113 -740.205 408.264C-797.825 435.466 -848.726 473.963 -892.346 517.588C-899.802 525.041 -907.155 532.715 -914.501 540.466C-940.718 568.139 -966.871 596.813 -997.5 619.975C-1015.81 633.822 -1035.67 645.94 -1058.33 653.854C-1072.48 658.799 -1087.07 661.788 -1102 663.29C-1117.88 664.888 -1133.78 665.071 -1149.99 664.698C-1205.28 663.38 -1264.47 656.83 -1318.23 670.597" stroke="white" stroke-opacity="0.8" stroke-miterlimit="10"/>
<path d="M670.307 287.522C643.49 353.188 585.717 409.629 511.549 438.012C465.132 455.816 417.78 456.89 371.67 474.637C320.64 494.226 266.908 508.042 212.047 516.414C174.414 522.159 136.216 525.339 97.9569 526.053C22.6269 527.451 -52.9727 519.3 -124.924 501.202C-166.991 490.622 -207.661 476.876 -247.184 461.258C-276.18 449.75 -304.656 437.238 -332.703 424.139C-373.107 405.224 -413.177 384.875 -457.442 372.954C-472.76 368.843 -488.412 365.817 -504.251 363.792C-572.577 355.017 -644.562 363.778 -707.987 386.75C-724.231 392.602 -739.948 399.332 -755.126 406.873C-813.289 435.587 -864.341 475.631 -907.9 520.654C-915.345 528.345 -922.679 536.256 -930.014 544.237C-956.185 572.727 -982.319 602.128 -1013.16 625.701C-1031.6 639.794 -1051.69 651.962 -1074.64 660.047C-1088.97 665.098 -1103.73 668.248 -1118.82 670.003C-1134.94 671.878 -1151.17 672.342 -1167.68 672.198C-1223.96 671.678 -1283.54 664.965 -1338.15 678.451" stroke="white" stroke-opacity="0.8" stroke-miterlimit="10"/>
<path d="M666.837 289.003C641.811 355.303 584.886 412.201 511.2 440.468C464.167 458.531 416.197 459.326 369.552 477.543C318.04 497.635 263.741 512.019 208.281 520.794C170.231 526.816 131.6 530.193 92.9001 530.954C16.7158 532.448 -59.7417 523.807 -132.513 504.639C-175.054 493.431 -216.184 478.871 -256.17 462.298C-285.534 450.1 -314.333 436.821 -342.673 422.941C-383.517 402.912 -423.986 381.411 -468.778 368.796C-484.263 364.442 -500.094 361.232 -516.118 359.08C-585.313 349.781 -658.202 359.747 -722.394 384.197C-738.817 390.437 -754.704 397.567 -770.053 405.491C-828.763 435.716 -879.963 477.313 -923.461 523.733C-930.895 531.661 -938.214 539.809 -945.533 548.02C-971.659 577.328 -997.774 607.456 -1028.83 631.436C-1047.4 645.776 -1067.72 657.998 -1090.95 666.249C-1105.47 671.407 -1120.4 674.744 -1135.65 676.726C-1152 678.904 -1168.58 679.618 -1185.39 679.709C-1242.65 679.989 -1302.62 673.109 -1358.09 686.318" stroke="white" stroke-opacity="0.8" stroke-miterlimit="10"/>
<path d="M663.363 290.482C640.13 357.416 584.051 414.767 510.851 442.917C463.203 461.238 414.618 461.755 367.434 480.446C315.44 501.042 260.576 515.993 204.516 525.169C90.3267 543.86 -29.1317 538.588 -140.098 508.069C-214.741 487.539 -285.052 456.343 -352.63 421.737C-393.918 400.593 -434.778 377.945 -480.098 364.632C-563.416 340.159 -656.797 349.715 -736.785 381.635C-816.773 413.556 -884.196 466.463 -939.003 526.803C-988.742 581.559 -1033.42 646.007 -1107.24 672.445C-1191.68 702.681 -1289.79 673.917 -1378 694.173" stroke="white" stroke-opacity="0.8" stroke-miterlimit="10"/>
</g>
<rect width="414" height="920" fill="url(#paint0_radial_78_251)"/>
<defs>
<radialGradient id="paint0_radial_78_251" cx="0" cy="0" r="1" gradientUnits="userSpaceOnUse" gradientTransform="translate(207 460) rotate(90) scale(501 225.45)">
<stop offset="0.550189" stop-opacity="0.86"/>
<stop offset="0.862689" stop-opacity="0.98"/>
</radialGradient>
<clipPath id="clip0_78_251">
<rect width="414" height="469" fill="white" transform="translate(0 225)"/>
</clipPath>
</defs>
</svg>
